<?xml version="1.0" encoding="UTF-8" standalone="no"?>
<!-- Created with Inkscape (http://www.inkscape.org/) -->

<svg
   xmlns:dc="http://purl.org/dc/elements/1.1/"
   xmlns:cc="http://creativecommons.org/ns#"
   xmlns:rdf="http://www.w3.org/1999/02/22-rdf-syntax-ns#"
   xmlns:svg="http://www.w3.org/2000/svg"
   xmlns="http://www.w3.org/2000/svg"
   xmlns:sodipodi="http://sodipodi.sourceforge.net/DTD/sodipodi-0.dtd"
   xmlns:inkscape="http://www.inkscape.org/namespaces/inkscape"
   width="102.59187mm"
   height="118.60037mm"
   viewBox="0 0 102.59187 118.60037"
   version="1.1"
   id="svg8"
   inkscape:version="0.92.2 5c3e80d, 2017-08-06"
   sodipodi:docname="drawing.svg">
  <defs
     id="defs2" />
  <sodipodi:namedview
     id="base"
     pagecolor="#ffffff"
     bordercolor="#666666"
     borderopacity="1.0"
     inkscape:pageopacity="0.0"
     inkscape:pageshadow="2"
     inkscape:zoom="0.7"
     inkscape:cx="46.599596"
     inkscape:cy="241.85405"
     inkscape:document-units="mm"
     inkscape:current-layer="layer1"
     showgrid="false"
     fit-margin-top="10"
     fit-margin-left="10"
     fit-margin-right="10"
     fit-margin-bottom="10"
     inkscape:window-width="1600"
     inkscape:window-height="881"
     inkscape:window-x="0"
     inkscape:window-y="19"
     inkscape:window-maximized="0" />
  <metadata
     id="metadata5">
    <rdf:RDF>
      <cc:Work
         rdf:about="">
        <dc:format>image/svg+xml</dc:format>
        <dc:type
           rdf:resource="http://purl.org/dc/dcmitype/StillImage" />
        <dc:title></dc:title>
      </cc:Work>
    </rdf:RDF>
  </metadata>
  <g
     inkscape:label="Layer 1"
     inkscape:groupmode="layer"
     id="layer1"
     transform="translate(-43.062105,-123.42212)"
     style="display:none">
    <path
       style="fill:none;stroke:#000000;stroke-width:0.40707913;stroke-opacity:1"
       d="m 53.546979,231.54752 c -0.56243,-0.56243 -0.23943,-3.85428 0.59773,-6.09179 1.55219,-4.14861 5.3264,-7.28195 9.98988,-8.29357 1.08019,-0.23433 5.507,-1.81519 9.83736,-3.51303 4.33035,-1.69784 8.0156,-2.92965 8.18945,-2.73735 0.17384,0.19229 0.71391,1.90671 1.20015,3.8098 0.48624,1.9031 1.66656,6.31191 2.62292,9.79737 0.95636,3.48545 1.66664,6.55381 1.57838,6.81857 -0.12003,0.36009 -4.3917,0.48139 -16.95248,0.48139 -9.2356,0 -16.91413,-0.12213 -17.06339,-0.27139 z m 37.19318,-1.05162 c 0.007,-0.72765 0.35804,-2.32169 0.7794,-3.54229 l 0.76612,-2.21928 -0.98295,-1.93975 c -0.54062,-1.06686 -0.98294,-2.10509 -0.98294,-2.30718 0,-0.20209 0.74822,-1.30717 1.66272,-2.45573 l 1.66272,-2.08829 -1.96803,-0.84431 c -1.08242,-0.46437 -3.34192,-1.40564 -5.02112,-2.0917 -4.11164,-1.67986 -4.41634,-1.99241 -3.31158,-3.39689 1.41329,-1.7967 1.16108,-2.04547 -2.08222,-2.05375 -3.10853,-0.008 -6.68488,-1.09504 -8.53197,-2.59347 l -0.93262,-0.75657 0.9751,-1.03973 0.97511,-1.03974 -0.87334,-2.58549 c -1.02442,-3.03279 -1.12594,-6.50549 -0.25136,-8.59867 0.55903,-1.33795 0.55803,-1.67695 -0.01,-3.35001 -0.74978,-2.20841 -0.33015,-5.36515 1.22049,-9.18129 1.01899,-2.50776 2.67823,-8.09388 3.4828,-11.72552 1.16,-5.2359 4.48091,-9.74436 8.71195,-11.82729 2.03243,-1.00056 3.23408,-1.2891 6.15729,-1.47849 5.29976,-0.34335 8.984561,0.37951 11.884601,2.33147 4.1651,2.80344 6.02763,5.99085 7.84171,13.41976 0.6555,2.68437 1.84841,6.57544 2.65093,8.64681 1.75744,4.53616 2.27732,8.6912 1.27822,10.21601 -0.59867,0.9137 -0.58531,1.14964 0.179,3.16116 0.94931,2.49836 0.88355,4.42835 -0.29428,8.63808 -0.73925,2.64218 -0.7425,2.80599 -0.0654,3.30151 1.2492,0.9143 0.80798,1.75208 -1.49705,2.84253 -2.91738,1.38014 -5.99141,2.00805 -8.20536,1.67605 -0.98866,-0.14826 -1.79758,-0.15725 -1.79758,-0.0199 0,0.13728 0.41217,0.976 0.91593,1.86382 1.10628,1.9497 1.40398,1.69576 -5.083621,4.33656 -2.62807,1.06977 -4.7805,2.05664 -4.78318,2.19305 -0.003,0.13641 0.6345,1.05234 1.41595,2.03539 1.65803,2.08577 1.72539,2.66309 0.57405,4.91992 l -0.85469,1.67532 0.89224,3.00552 c 0.49073,1.65303 0.78949,3.27324 0.66392,3.60048 -0.17557,0.45756 -1.03029,0.59496 -3.70124,0.59496 h -3.47295 l 0.0133,-1.32301 z m 10.357581,0.81863 c -0.21899,-0.58833 4.92372,-19.838 5.43703,-20.3513 0.18598,-0.18599 3.89532,1.03037 8.24298,2.703 4.34766,1.67263 9.19813,3.41338 10.77883,3.86834 3.494,1.00563 5.9223,2.6938 7.54247,5.24356 1.45913,2.29631 2.50769,5.67241 2.33118,7.50576 l -0.1282,1.33148 -17.00661,0.10624 c -13.38972,0.0836 -17.04725,-0.003 -17.19768,-0.40708 z"
       id="path4517"
       inkscape:connector-curvature="0"
       sodipodi:nodetypes="sscsccscsscccsscccccccccccccccsccscccscscscccsccscscccccscccccc" />
  </g>
  <g
     inkscape:groupmode="layer"
     id="layer2"
     inkscape:label="Up"
     style="display:inline"
     transform="translate(-8.7040653,5.6126955)">
    <path
       sodipodi:nodetypes="sscsccscsscccsscccccccccccccccsccscccscscscccsccscscccccscccccc"
       inkscape:connector-curvature="0"
       id="path4519"
       d="m 19.188939,102.5127 c -0.56243,-0.56243 -0.23943,-3.85428 0.59773,-6.09179 1.55219,-4.14861 5.3264,-7.28195 9.98988,-8.29357 1.08019,-0.23433 5.507,-1.81519 9.83736,-3.51303 4.33035,-1.69784 8.0156,-2.92965 8.18945,-2.73735 0.17384,0.19229 0.71391,1.90671 1.20015,3.8098 0.48624,1.9031 1.66656,6.31191 2.62292,9.79737 0.95636,3.48545 1.66664,6.55381 1.57838,6.81857 -0.12003,0.36009 -4.3917,0.48139 -16.95248,0.48139 -9.2356,0 -16.91413,-0.12213 -17.06339,-0.27139 z m 37.19318,-1.05162 c 0.007,-0.72765 0.35804,-2.32169 0.7794,-3.54229 l 0.76612,-2.21928 -0.98295,-1.93975 c -0.54062,-1.06686 -0.98294,-2.10509 -0.98294,-2.30718 0,-0.20209 0.74822,-1.30717 1.66272,-2.45573 l 1.66272,-2.08829 -1.96803,-0.84431 c -1.08242,-0.46437 -3.34192,-1.40564 -5.02112,-2.0917 -4.11164,-1.67986 -4.41634,-1.99241 -3.31158,-3.39689 1.41329,-1.7967 1.16108,-2.04547 -2.08222,-2.05375 -3.10853,-0.008 -6.68488,-1.09504 -8.53197,-2.59347 l -0.93262,-0.75657 0.9751,-1.03973 0.97511,-1.03974 -0.87334,-2.58549 c -1.02442,-3.03279 -1.12594,-5.44716 -0.25136,-7.54034 0.55903,-1.33795 0.55803,-1.67695 -0.01,-3.35001 -0.74978,-2.20841 -0.33015,-3.24848 1.22049,-7.06462 1.01899,-2.50776 2.67823,-7.03555 3.4828,-10.66719 1.16,-5.2359 4.48091,-8.68602 8.71195,-10.76895 2.03243,-1.00056 3.23408,-1.2891 6.15729,-1.47849 5.29976,-0.34335 8.98456,0.37951 11.8846,2.33147 4.1651,2.80344 6.02763,4.93251 7.84171,12.36142 0.6555,2.68437 1.84841,5.51711 2.65093,7.58848 1.75744,4.53616 2.27732,6.57453 1.27822,8.09934 -0.59867,0.9137 -0.58531,1.14964 0.179,3.16116 0.94931,2.49836 0.88355,3.37002 -0.29428,7.57975 -0.73925,2.64218 -0.7425,2.80599 -0.0654,3.30151 1.2492,0.9143 0.80798,1.75208 -1.49705,2.84253 -2.91738,1.38014 -5.99141,2.00805 -8.20536,1.67605 -0.98866,-0.14826 -1.79758,-0.15725 -1.79758,-0.0199 0,0.13728 0.41217,0.976 0.91593,1.86382 1.10628,1.9497 1.40398,1.69576 -5.08362,4.33656 -2.62807,1.06977 -4.7805,2.05664 -4.78318,2.19305 -0.003,0.13641 0.6345,1.05234 1.41595,2.03539 1.65803,2.08577 1.72539,2.66309 0.57405,4.91992 l -0.85469,1.67532 0.89224,3.00552 c 0.49073,1.65303 0.78949,3.27324 0.66392,3.60048 -0.17557,0.45756 -1.03029,0.59496 -3.70124,0.59496 h -3.47295 l 0.0133,-1.32301 z m 10.35758,0.81863 c -0.21899,-0.58833 4.92372,-19.838 5.43703,-20.3513 0.18598,-0.18599 3.89532,1.03037 8.24298,2.703 4.34766,1.67263 9.19813,3.41338 10.77883,3.86834 3.494,1.00563 5.9223,2.6938 7.54247,5.24356 1.459131,2.29631 2.507691,5.67241 2.331181,7.50576 l -0.1282,1.33148 -17.006611,0.10624 c -13.38972,0.0836 -17.04725,-0.003 -17.19768,-0.40708 z"
       style="fill:none;stroke:#000000;stroke-width:0.40707913;stroke-opacity:1" />
    <path
       sodipodi:nodetypes="cccccccc"
       inkscape:connector-curvature="0"
       id="path4531"
       d="m 64.729768,27.203162 v -6.460384 h 5.687535 L 60,11.087667 49.582697,20.742778 h 5.687535 v 6.460384 z"
       style="fill:none;fill-rule:evenodd;stroke:#000000;stroke-width:0.26458332px;stroke-linecap:butt;stroke-linejoin:miter;stroke-opacity:1" />
  </g>
  <g
     inkscape:groupmode="layer"
     id="layer3"
     inkscape:label="Left"
     style="display:none;opacity:1"
     transform="translate(-8.7040653,5.6126955)">
    <path
       sodipodi:nodetypes="sscsccscssccscccccc"
       inkscape:connector-curvature="0"
       id="path4533"
       d="m 19.188939,102.5127 c -0.56243,-0.56243 -0.23943,-3.85428 0.59773,-6.09179 1.55219,-4.14861 5.3264,-7.28195 9.98988,-8.29357 1.08019,-0.23433 5.507,-1.81519 9.83736,-3.51303 4.33035,-1.69784 8.0156,-2.92965 8.18945,-2.73735 0.17384,0.19229 0.71391,1.90671 1.20015,3.8098 0.48624,1.9031 1.66656,6.31191 2.62292,9.79737 0.95636,3.48545 1.66664,6.55381 1.57838,6.81857 -0.12003,0.36009 -4.3917,0.48139 -16.95248,0.48139 -9.2356,0 -16.91413,-0.12213 -17.06339,-0.27139 z m 47.55076,-0.23299 c -0.21899,-0.58833 4.92372,-19.838 5.43703,-20.3513 0.18598,-0.18599 3.89532,1.03037 8.24298,2.703 4.34766,1.67263 9.19813,3.41338 10.77883,3.86834 3.494,1.00563 5.9223,2.6938 7.54247,5.24356 1.459131,2.29631 2.507691,5.67241 2.331181,7.50576 l -0.1282,1.33148 -17.006611,0.10624 c -13.38972,0.0836 -17.04725,-0.003 -17.19768,-0.40708 z"
       style="display:inline;fill:none;stroke:#000000;stroke-width:0.40707913;stroke-opacity:1" />
    <path
       style="display:inline;fill:none;stroke:#000000;stroke-width:0.40707913;stroke-opacity:1"
       d="m 47.403968,81.050177 c -2.920412,1.064994 -6.652208,1.278614 -8.902866,0.509476 l -1.136384,-0.388341 0.556497,-1.312314 0.556503,-1.312328 -1.711757,-2.12541 c -2.007885,-2.493118 -3.30132,-3.071719 -3.202631,-5.338116 0.06308,-1.44867 -0.05482,-1.766509 -1.165204,-3.140854 -1.465685,-1.814115 -2.160959,-4.921798 -2.022178,-9.038611 0.09119,-2.705343 -0.278771,-8.520921 -0.776591,-12.207154 -0.717717,-5.314615 0.843768,-10.692014 4.096352,-14.106834 1.562417,-1.640349 2.590728,-2.325764 5.269097,-3.512089 4.855869,-2.150787 8.563806,-2.743642 11.959235,-1.912111 4.876586,1.194256 7.724466,3.543336 11.990272,9.890185 1.541409,2.293377 4.003564,5.533941 5.471469,7.201234 3.214589,3.651269 5.136115,7.371802 4.724454,9.147691 -0.246665,1.064148 -0.152722,1.28099 1.25867,2.905292 1.753001,2.017419 2.357163,3.851588 2.704096,8.209196 0.217746,2.734994 0.271213,2.889867 1.077701,3.121347 1.487944,0.427159 1.362868,1.365725 -0.424397,3.184497 -2.262064,2.301946 -7.123244,3.874976 -7.123244,3.874976 -0.979105,0.201951 -1.741455,0.472606 -1.694067,0.601522 0.540481,1.569584 0.893484,3.257689 0.893484,3.257689 0,0.13728 0.41217,0.976 0.91593,1.86382 1.10628,1.9497 1.40398,1.69576 -5.08362,4.33656 -2.62807,1.06977 -4.7805,2.05664 -4.78318,2.19305 -0.003,0.13641 0.6345,1.05234 1.41595,2.03539 1.65803,2.08577 1.72539,2.66309 0.57405,4.91992 l -0.85469,1.67532 0.89224,3.00552 c 0.49073,1.65303 0.78949,3.27324 0.66392,3.60048 -0.17557,0.45756 -1.03029,0.59496 -3.70124,0.59496 h -3.47295 l 0.0133,-1.32301 -7e-5,-5e-5 c 0.007,-0.72765 0.35804,-2.32169 0.7794,-3.54229 l 0.76612,-2.21928 -0.98295,-1.93975 c -0.54062,-1.06686 -0.98294,-2.10509 -0.98294,-2.30718 0,-0.20209 0.74822,-1.30717 1.66272,-2.45573 l 1.66272,-2.08829 -1.96803,-0.84431 c -1.08242,-0.46437 -3.34192,-1.40564 -5.02112,-2.0917 -4.11164,-1.67986 -4.41634,-1.99241 -2.771353,-2.555015 1.24684,-1.332111 0.924286,-1.478588 -2.122718,-0.367358 z"
       id="path4537"
       inkscape:connector-curvature="0"
       sodipodi:nodetypes="ccccccccccsccscccscsccccccsccscscccccsscccccc" />
    <path
       sodipodi:nodetypes="cccccccc"
       inkscape:connector-curvature="0"
       id="path4531-3"
       d="m 62.842414,30.610446 6.18989,-1.849828 1.628533,5.449392 6.268024,-12.745711 -12.233676,-7.216542 1.628532,5.449393 -6.18989,1.849828 z"
       style="display:inline;fill:none;fill-rule:evenodd;stroke:#000000;stroke-width:0.26458332px;stroke-linecap:butt;stroke-linejoin:miter;stroke-opacity:1" />
  </g>
  <g
     inkscape:groupmode="layer"
     id="layer4"
     inkscape:label="Right"
     style="display:none"
     transform="translate(-8.7040653,5.6126955)">
    <path
       style="display:inline;opacity:1;fill:none;stroke:#000000;stroke-width:0.40707913;stroke-opacity:1"
       d="m 100.81106,102.5127 c 0.56243,-0.56243 0.23943,-3.85428 -0.59773,-6.09179 -1.552189,-4.14861 -5.326399,-7.28195 -9.989879,-8.29357 -1.08019,-0.23433 -5.507,-1.81519 -9.83736,-3.51303 -4.33035,-1.69784 -8.0156,-2.92965 -8.18945,-2.73735 -0.17384,0.19229 -0.71391,1.90671 -1.20015,3.8098 -0.48624,1.9031 -1.66656,6.31191 -2.62292,9.79737 -0.95636,3.48545 -1.66664,6.55381 -1.57838,6.81857 0.12003,0.36009 4.3917,0.48139 16.95248,0.48139 9.2356,0 16.914129,-0.12213 17.063389,-0.27139 z m -47.550759,-0.23299 c 0.21899,-0.58833 -4.92372,-19.838 -5.43703,-20.3513 -0.18598,-0.18599 -3.89532,1.03037 -8.24298,2.703 -4.34766,1.67263 -9.19813,3.41338 -10.77883,3.86834 -3.494,1.00563 -5.9223,2.6938 -7.54247,5.24356 -1.45913,2.29631 -2.50769,5.67241 -2.33118,7.50576 l 0.1282,1.33148 17.00661,0.10624 c 13.38972,0.0836 17.04725,-0.003 17.19768,-0.40708 z"
       id="path4554"
       inkscape:connector-curvature="0"
       sodipodi:nodetypes="sscsccscssccscccccc" />
    <path
       sodipodi:nodetypes="ccccccccccsccscccscsccccccsccscscccccsscccccc"
       inkscape:connector-curvature="0"
       id="path4556"
       d="m 72.596032,81.050177 c 2.920412,1.064994 6.652208,1.278614 8.902866,0.509476 l 1.136384,-0.388341 -0.556497,-1.312314 -0.556503,-1.312328 1.711757,-2.12541 c 2.007885,-2.493118 3.30132,-3.071719 3.202631,-5.338116 -0.06308,-1.44867 0.05482,-1.766509 1.165204,-3.140854 1.465685,-1.814115 2.160959,-4.921798 2.022178,-9.038611 -0.09119,-2.705343 0.278771,-8.520921 0.776591,-12.207154 C 91.11836,41.38191 89.556875,36.004511 86.304291,32.589691 84.741874,30.949342 83.713563,30.263927 81.035194,29.077602 76.179325,26.926815 72.471388,26.33396 69.075959,27.165491 c -4.876586,1.194256 -7.724466,3.543336 -11.990272,9.890185 -1.541409,2.293377 -4.003564,5.533941 -5.471469,7.201234 -3.214589,3.651269 -5.136115,7.371802 -4.724454,9.147691 0.246665,1.064148 0.152722,1.28099 -1.25867,2.905292 -1.753001,2.017419 -2.357163,3.851588 -2.704096,8.209196 -0.217746,2.734994 -0.271213,2.889867 -1.077701,3.121347 -1.487944,0.427159 -1.362868,1.365725 0.424397,3.184497 2.262064,2.301946 7.123244,3.874976 7.123244,3.874976 0.979105,0.201951 1.741455,0.472606 1.694067,0.601522 -0.540481,1.569584 -0.893484,3.257689 -0.893484,3.257689 0,0.13728 -0.41217,0.976 -0.91593,1.86382 -1.10628,1.9497 -1.40398,1.69576 5.08362,4.33656 2.62807,1.06977 4.7805,2.05664 4.78318,2.19305 0.003,0.13641 -0.6345,1.05234 -1.41595,2.03539 -1.65803,2.08577 -1.72539,2.66309 -0.57405,4.91992 l 0.85469,1.67532 -0.89224,3.00552 c -0.49073,1.65303 -0.78949,3.27324 -0.66392,3.60048 0.17557,0.45756 1.03029,0.59496 3.70124,0.59496 h 3.47295 l -0.0133,-1.32301 7e-5,-5e-5 c -0.007,-0.72765 -0.35804,-2.32169 -0.7794,-3.54229 l -0.76612,-2.21928 0.98295,-1.93975 c 0.54062,-1.06686 0.98294,-2.10509 0.98294,-2.30718 0,-0.20209 -0.74822,-1.30717 -1.66272,-2.45573 l -1.66272,-2.08829 1.96803,-0.84431 c 1.08242,-0.46437 3.34192,-1.40564 5.02112,-2.0917 4.11164,-1.67986 4.41634,-1.99241 2.771353,-2.555015 -1.24684,-1.332111 -0.924286,-1.478588 2.122718,-0.367358 z"
       style="display:inline;opacity:1;fill:none;stroke:#000000;stroke-width:0.40707913;stroke-opacity:1" />
    <path
       style="display:inline;opacity:1;fill:none;fill-rule:evenodd;stroke:#000000;stroke-width:0.26458332px;stroke-linecap:butt;stroke-linejoin:miter;stroke-opacity:1"
       d="m 57.157586,30.610446 -6.18989,-1.849828 -1.628533,5.449392 -6.268024,-12.745711 12.233676,-7.216542 -1.628532,5.449393 6.18989,1.849828 z"
       id="path4558"
       inkscape:connector-curvature="0"
       sodipodi:nodetypes="cccccccc" />
  </g>
  <g
     inkscape:groupmode="layer"
     id="layer5"
     inkscape:label="tilt_left"
     style="display:none"
     transform="translate(-8.7040653,5.6126955)">
    <path
       sodipodi:nodetypes="sscsccscsscccsscccccccccccccccsccssscsccccsccscscccccscccccc"
       inkscape:connector-curvature="0"
       id="path4563"
       d="m 19.188939,102.5127 c -0.56243,-0.56243 -0.23943,-3.85428 0.59773,-6.09179 1.55219,-4.14861 5.3264,-7.28195 9.98988,-8.29357 1.08019,-0.23433 5.507,-1.81519 9.83736,-3.51303 4.33035,-1.69784 8.0156,-2.92965 8.18945,-2.73735 0.17384,0.19229 0.71391,1.90671 1.20015,3.8098 0.48624,1.9031 1.66656,6.31191 2.62292,9.79737 0.95636,3.48545 1.66664,6.55381 1.57838,6.81857 -0.12003,0.36009 -4.3917,0.48139 -16.95248,0.48139 -9.2356,0 -16.91413,-0.12213 -17.06339,-0.27139 z m 37.19318,-1.05162 c 0.007,-0.72765 0.35804,-2.32169 0.7794,-3.54229 l 0.76612,-2.21928 -0.98295,-1.93975 c -0.54062,-1.06686 -0.98294,-2.10509 -0.98294,-2.30718 0,-0.20209 0.74822,-1.30717 1.66272,-2.45573 l 1.66272,-2.08829 -1.96803,-0.84431 c -1.08242,-0.46437 -3.34192,-1.40564 -5.02112,-2.0917 -4.11164,-1.67986 -4.41634,-1.99241 -3.31158,-3.39689 1.41329,-1.7967 1.16108,-2.04547 -2.08222,-2.05375 -3.10853,-0.008 -5.09738,-1.09504 -6.94447,-2.59347 l -0.93262,-0.75657 0.9751,-1.03973 0.97511,-1.03974 -0.87334,-2.58549 c -1.02442,-3.03279 -1.12594,-6.50549 -0.25136,-8.59867 0.55903,-1.33795 0.55803,-1.67695 -0.01,-3.35001 -0.74978,-2.20841 -0.33015,-5.36515 1.22049,-9.18129 1.01899,-2.50776 1.09073,-8.09388 1.8953,-11.72552 1.16,-5.2359 4.48091,-9.74436 8.71195,-11.82729 2.03243,-1.00056 3.23408,-1.2891 6.15729,-1.47849 5.29976,-0.34335 7.926227,0.37951 10.826267,2.33147 4.1651,2.80344 6.520903,5.15334 8.910793,12.4175 1.25685,3.82026 0.79202,2.34299 1.58185,9.64907 0.94064,8.70113 1.89788,16.03818 1.16294,22.01525 -0.20979,1.70612 0.0701,2.13782 -0.45556,3.43514 -1.0894,1.24839 -0.38936,1.61845 -2.69439,2.7089 -2.917383,1.38014 -3.46847,1.28976 -6.06662,1.8765 -0.594344,0.25349 -0.09591,0.85497 0.0096,1.61006 1.10628,1.9497 -0.600542,2.46416 -5.46782,4.36997 -2.62807,1.06977 -4.7805,2.05664 -4.78318,2.19305 -0.003,0.13641 0.6345,1.05234 1.41595,2.03539 1.65803,2.08577 1.72539,2.66309 0.57405,4.91992 l -0.85469,1.67532 0.89224,3.00552 c 0.49073,1.65303 0.78949,3.27324 0.66392,3.60048 -0.17557,0.45756 -1.03029,0.59496 -3.70124,0.59496 h -3.47295 l 0.0133,-1.32301 z m 10.35758,0.81863 c -0.21899,-0.58833 4.92372,-19.838 5.43703,-20.3513 0.18598,-0.18599 3.89532,1.03037 8.24298,2.703 4.34766,1.67263 9.19813,3.41338 10.77883,3.86834 3.494,1.00563 5.9223,2.6938 7.54247,5.24356 1.459131,2.29631 2.507691,5.67241 2.331181,7.50576 l -0.1282,1.33148 -17.006611,0.10624 c -13.38972,0.0836 -17.04725,-0.003 -17.19768,-0.40708 z"
       style="display:inline;opacity:1;fill:none;stroke:#000000;stroke-width:0.40707913;stroke-opacity:1" />
    <path
       style="opacity:0.98999999;fill:none;fill-rule:evenodd;stroke:#000000;stroke-width:0.40452456px;stroke-linecap:butt;stroke-linejoin:miter;stroke-opacity:1"
       d="m 44.632627,7.2900326 v 7.3681284 c 3.139325,4.294262 12.007969,4.414797 20.22623,1.646993 v 5.778923 c 4.021894,-3.717634 7.555849,-8.565166 10.40206,-14.5917824 -4.677831,-0.344842 -6.924627,-0.627172 -10.40206,-2.744989 v 5.7789254 c -8.799842,4.402527 -16.758875,2.398252 -20.22623,-3.2361984 z"
       id="path4573"
       inkscape:connector-curvature="0"
       sodipodi:nodetypes="cccccccc" />
  </g>
  <g
     inkscape:groupmode="layer"
     id="layer6"
     inkscape:label="tilt_right"
     style="display:none"
     transform="translate(-8.7040653,5.6126955)">
    <path
       style="display:inline;opacity:1;fill:none;stroke:#000000;stroke-width:0.40707913;stroke-opacity:1"
       d="m 100.81106,102.5127 c 0.56243,-0.56243 0.23943,-3.85428 -0.59773,-6.09179 -1.552188,-4.14861 -5.326398,-7.28195 -9.989878,-8.29357 -1.08019,-0.23433 -5.507,-1.81519 -9.83736,-3.51303 -4.33035,-1.69784 -8.0156,-2.92965 -8.18945,-2.73735 -0.17384,0.19229 -0.71391,1.90671 -1.20015,3.8098 -0.48624,1.9031 -1.66656,6.31191 -2.62292,9.79737 -0.95636,3.48545 -1.66664,6.55381 -1.57838,6.81857 0.12003,0.36009 4.3917,0.48139 16.95248,0.48139 9.2356,0 16.914128,-0.12213 17.063388,-0.27139 z m -37.193178,-1.05162 c -0.007,-0.72765 -0.35804,-2.32169 -0.7794,-3.54229 l -0.76612,-2.21928 0.98295,-1.93975 c 0.54062,-1.06686 0.98294,-2.10509 0.98294,-2.30718 0,-0.20209 -0.74822,-1.30717 -1.66272,-2.45573 l -1.66272,-2.08829 1.96803,-0.84431 c 1.08242,-0.46437 3.34192,-1.40564 5.02112,-2.0917 4.11164,-1.67986 4.41634,-1.99241 3.31158,-3.39689 -1.41329,-1.7967 -1.16108,-2.04547 2.08222,-2.05375 3.10853,-0.008 5.09738,-1.09504 6.94447,-2.59347 l 0.93262,-0.75657 -0.9751,-1.03973 -0.97511,-1.03974 0.87334,-2.58549 c 1.02442,-3.03279 1.12594,-6.50549 0.25136,-8.59867 -0.55903,-1.33795 -0.55803,-1.67695 0.01,-3.35001 0.74978,-2.20841 0.33015,-5.36515 -1.22049,-9.18129 -1.01899,-2.50776 -1.09073,-8.09388 -1.8953,-11.72552 -1.16,-5.2359 -4.48091,-9.74436 -8.71195,-11.82729 -2.03243,-1.00056 -3.23408,-1.2891 -6.15729,-1.47849 -5.29976,-0.34335 -7.926227,0.37951 -10.826267,2.33147 -4.1651,2.80344 -6.520903,5.15334 -8.910793,12.4175 -1.25685,3.82026 -0.79202,2.34299 -1.58185,9.64907 -0.94064,8.70113 -1.89788,16.03818 -1.16294,22.01525 0.20979,1.70612 -0.0701,2.13782 0.45556,3.43514 1.0894,1.24839 0.38936,1.61845 2.69439,2.7089 2.917383,1.38014 3.46847,1.28976 6.06662,1.8765 0.594344,0.25349 0.09591,0.85497 -0.0096,1.61006 -1.10628,1.9497 0.600542,2.46416 5.46782,4.36997 2.62807,1.06977 4.7805,2.05664 4.78318,2.19305 0.003,0.13641 -0.6345,1.05234 -1.41595,2.03539 -1.65803,2.08577 -1.72539,2.66309 -0.57405,4.91992 l 0.85469,1.67532 -0.89224,3.00552 c -0.49073,1.65303 -0.78949,3.27324 -0.66392,3.60048 0.17557,0.45756 1.03029,0.59496 3.70124,0.59496 h 3.47295 l -0.0133,-1.32301 z m -10.35758,0.81863 c 0.21899,-0.58833 -4.92372,-19.838 -5.43703,-20.3513 -0.18598,-0.18599 -3.89532,1.03037 -8.24298,2.703 -4.34766,1.67263 -9.19813,3.41338 -10.77883,3.86834 -3.494,1.00563 -5.9223,2.6938 -7.54247,5.24356 -1.459131,2.29631 -2.507691,5.67241 -2.331181,7.50576 l 0.1282,1.33148 17.006611,0.10624 c 13.38972,0.0836 17.04725,-0.003 17.19768,-0.40708 z"
       id="path4581"
       inkscape:connector-curvature="0"
       sodipodi:nodetypes="sscsccscsscccsscccccccccccccccsccssscsccccsccscscccccscccccc" />
    <path
       sodipodi:nodetypes="cccccccc"
       inkscape:connector-curvature="0"
       id="path4583"
       d="m 75.367374,7.2900326 v 7.3681284 c -3.139325,4.294262 -12.007969,4.414797 -20.22623,1.646993 v 5.778923 C 51.11925,18.366443 47.585295,13.518911 44.739084,7.4922946 c 4.677831,-0.344842 6.924627,-0.627172 10.40206,-2.744989 v 5.7789254 c 8.799842,4.402527 16.758875,2.398252 20.22623,-3.2361984 z"
       style="display:inline;opacity:0.98999999;fill:none;fill-rule:evenodd;stroke:#000000;stroke-width:0.40452456px;stroke-linecap:butt;stroke-linejoin:miter;stroke-opacity:1" />
  </g>
</svg>
