<?xml version="1.0" encoding="UTF-8" standalone="no"?>
<!-- Created with Inkscape (http://www.inkscape.org/) -->

<svg
   xmlns:dc="http://purl.org/dc/elements/1.1/"
   xmlns:cc="http://creativecommons.org/ns#"
   xmlns:rdf="http://www.w3.org/1999/02/22-rdf-syntax-ns#"
   xmlns:svg="http://www.w3.org/2000/svg"
   xmlns="http://www.w3.org/2000/svg"
   xmlns:sodipodi="http://sodipodi.sourceforge.net/DTD/sodipodi-0.dtd"
   xmlns:inkscape="http://www.inkscape.org/namespaces/inkscape"
   width="255.43398mm"
   height="86.441994mm"
   viewBox="0 0 255.43398 86.441994"
   version="1.1"
   id="svg8"
   inkscape:version="0.92.2 5c3e80d, 2017-08-06"
   sodipodi:docname="logo.svg">
  <defs
     id="defs2" />
  <sodipodi:namedview
     id="base"
     pagecolor="#ffffff"
     bordercolor="#666666"
     borderopacity="1.0"
     inkscape:pageopacity="0.0"
     inkscape:pageshadow="2"
     inkscape:zoom="0.35"
     inkscape:cx="1242.4952"
     inkscape:cy="16.980475"
     inkscape:document-units="mm"
     inkscape:current-layer="layer1"
     showgrid="false"
     fit-margin-top="0"
     fit-margin-left="0"
     fit-margin-right="0"
     fit-margin-bottom="0"
     inkscape:window-width="1600"
     inkscape:window-height="881"
     inkscape:window-x="0"
     inkscape:window-y="19"
     inkscape:window-maximized="0" />
  <metadata
     id="metadata5">
    <rdf:RDF>
      <cc:Work
         rdf:about="">
        <dc:format>image/svg+xml</dc:format>
        <dc:type
           rdf:resource="http://purl.org/dc/dcmitype/StillImage" />
        <dc:title></dc:title>
      </cc:Work>
    </rdf:RDF>
  </metadata>
  <g
     inkscape:label="Layer 1"
     inkscape:groupmode="layer"
     id="layer1"
     transform="translate(17.062081,-120.27172)">
    <text
       xml:space="preserve"
       style="font-style:normal;font-weight:normal;font-size:4.49671412px;line-height:5.26958656px;font-family:sans-serif;letter-spacing:0px;word-spacing:0px;fill:#800000;fill-opacity:1;stroke:none;stroke-width:0.21078347px;stroke-linecap:butt;stroke-linejoin:miter;stroke-opacity:1"
       x="-16.260439"
       y="221.31145"
       id="text882"
       transform="scale(1.2552376,0.79666193)"><tspan
         sodipodi:role="line"
         id="tspan880"
         x="-16.260439"
         y="221.31145"
         style="font-size:40.47042847px;fill:#800000;stroke-width:0.21078347px">Slouch</tspan></text>
    <text
       xml:space="preserve"
       style="font-style:normal;font-weight:normal;font-size:5.86451197px;line-height:6.87247467px;font-family:sans-serif;letter-spacing:0px;word-spacing:0px;fill:#800000;fill-opacity:1;stroke:none;stroke-width:0.27489898px;stroke-linecap:butt;stroke-linejoin:miter;stroke-opacity:1"
       x="33.278175"
       y="208.04506"
       id="text886"
       transform="scale(1.0389884,0.96247466)"><tspan
         sodipodi:role="line"
         id="tspan884"
         x="33.278175"
         y="208.04506"
         style="font-size:26.39030457px;fill:#800000;stroke-width:0.27489898px">No more</tspan></text>
    <g
       id="g1091"
       transform="translate(79.41637,-4.9136665)">
      <path
         sodipodi:nodetypes="cc"
         inkscape:connector-curvature="0"
         id="path890"
         d="M 57.444141,152.47552 C 87.820951,125.103 121.97094,124.04209 152.55656,152.25411"
         style="fill:none;fill-rule:evenodd;stroke:#00005e;stroke-width:12.66499996;stroke-linecap:round;stroke-linejoin:miter;stroke-miterlimit:4;stroke-dasharray:none;stroke-opacity:1" />
      <path
         style="fill:none;fill-rule:evenodd;stroke:#00005e;stroke-width:10.80700016;stroke-linecap:round;stroke-linejoin:miter;stroke-miterlimit:4;stroke-dasharray:none;stroke-opacity:1"
         d="m 73.13624,164.93642 c 18.72564,-16.87366 39.77725,-17.52766 58.63161,-0.13649"
         id="path892"
         inkscape:connector-curvature="0"
         sodipodi:nodetypes="cc" />
    </g>
    <g
       id="g1087"
       transform="matrix(-0.63451672,0,0,0.63451672,282.5596,-8.6363453)">
      <path
         sodipodi:nodetypes="ccccccccccccccccccccccccccccccccccsscccccccccccccscccccccccccccccccsssc"
         style="fill:#dae5f0;stroke-width:0.26458335"
         d="m 124.11318,316.18777 c 0.0127,-0.30823 0.0754,-0.37092 0.15985,-0.15985 0.0764,0.19099 0.067,0.4192 -0.0209,0.50712 -0.0879,0.0879 -0.15045,-0.0684 -0.13896,-0.34727 z m 0,-2.64583 c 0.0127,-0.30823 0.0754,-0.37092 0.15985,-0.15986 0.0764,0.191 0.067,0.4192 -0.0209,0.50712 -0.0879,0.0879 -0.15045,-0.0684 -0.13896,-0.34726 z m 1.83119,-13.04635 c 0,-0.65917 0.10592,-1.05258 0.25807,-0.95855 0.14194,0.0877 0.21653,0.51625 0.16576,0.95229 -0.14446,1.24067 -0.42383,1.2448 -0.42383,0.006 z m 14.30839,-1.77032 c 0.0127,-0.30823 0.0754,-0.37092 0.15985,-0.15985 0.0764,0.19099 0.067,0.4192 -0.0209,0.50712 -0.0879,0.0879 -0.15045,-0.0684 -0.13896,-0.34727 z m 10.26574,-2.03693 c 0.11433,-0.11382 1.68637,-0.17284 3.49343,-0.13117 l 3.28557,0.0758 -3.49344,0.13116 c -1.92138,0.0721 -3.39989,0.038 -3.28556,-0.0758 z m 40.38108,0.0746 -10.84792,-0.14122 10.76616,-0.0617 c 6.95934,-0.0399 10.82398,0.0319 10.92968,0.2029 0.0899,0.14552 0.12673,0.23683 0.0818,0.2029 -0.045,-0.0339 -4.96333,-0.12523 -10.92968,-0.2029 z m -49.14636,-0.43993 c 0.18191,-0.0734 0.47956,-0.0734 0.66146,0 0.1819,0.0734 0.0331,0.13345 -0.33073,0.13345 -0.3638,0 -0.51263,-0.06 -0.33073,-0.13345 z m 4.36927,-0.2791 c 0.40218,-0.0608 0.99749,-0.0592 1.32291,0.004 0.32543,0.0628 -0.004,0.11256 -0.73124,0.11058 -0.7276,-0.002 -0.99386,-0.0534 -0.59167,-0.11419 z m -20.36703,-4.96951 c 0.002,-0.7276 0.0534,-0.99386 0.11419,-0.59167 0.0608,0.40218 0.0592,0.99749 -0.004,1.32291 -0.0628,0.32543 -0.11256,-0.004 -0.11058,-0.73124 z m 19.30506,0.47907 c 0.25466,-0.0665 0.67138,-0.0665 0.92604,0 0.25466,0.0666 0.0463,0.12101 -0.46302,0.12101 -0.50933,0 -0.71769,-0.0544 -0.46302,-0.12101 z m -3.55534,-0.26342 c 0.19099,-0.0764 0.4192,-0.067 0.50712,0.0209 0.0879,0.0879 -0.0684,0.15045 -0.34727,0.13897 -0.30823,-0.0127 -0.37092,-0.0754 -0.15985,-0.15986 z m -20.7768,-6.83023 c 0.002,-0.72761 0.0534,-0.99386 0.11418,-0.59168 0.0608,0.40219 0.0592,0.9975 -0.004,1.32292 -0.0628,0.32542 -0.11255,-0.004 -0.11057,-0.73124 z m 4.7625,-2.64584 c 0.002,-0.7276 0.0534,-0.99385 0.11418,-0.59167 0.0608,0.40218 0.0592,0.9975 -0.004,1.32292 -0.0628,0.32542 -0.11255,-0.004 -0.11057,-0.73125 z m 9.44932,-6.35 c 0.49366,-0.50932 0.95709,-0.92604 1.02985,-0.92604 0.0728,0 -0.27161,0.41672 -0.76526,0.92604 -0.49366,0.50933 -0.95709,0.92605 -1.02985,0.92605 -0.0728,0 0.27161,-0.41672 0.76526,-0.92605 z"
         id="path997"
         inkscape:connector-curvature="0" />
      <path
         sodipodi:nodetypes="ccscccscccccssscccccc"
         style="fill:#fce2c5;stroke-width:0.26458335"
         d="m 149.93292,294.6404 c -0.41249,-0.12372 -0.91851,-0.16028 -1.12448,-0.0812 -0.28809,0.11055 -0.37449,-0.12588 -0.37449,-1.02483 v -1.16853 l 2.76315,-0.35106 c 3.03861,-0.38605 4.50901,-0.27613 7.62175,0.56978 1.66576,0.45268 2.05052,0.65402 2.05052,1.07299 0,0.48671 -0.13295,0.50522 -2.36122,0.32886 -2.04388,-0.16176 -2.56082,-0.1122 -3.84639,0.36879 -1.52364,0.57007 -3.40153,0.68334 -4.72884,0.28524 z m -3.60012,-21.5743 c -1.21934,-0.69698 -1.60147,-1.10977 -2.58132,-2.7885 -0.85061,-1.45731 -0.74791,-4.56465 0.21773,-6.5876 0.89649,-1.87809 2.33929,-3.52139 3.89165,-4.43245 1.65972,-0.97407 4.08315,-1.01504 5.93086,-0.10026 1.52947,0.75722 3.45551,2.60845 4.16906,4.00712 0.72598,1.42303 0.71348,3.87701 -0.0273,5.36477 -0.83815,1.68328 -3.35666,3.95999 -5.1322,4.63945 -2.19024,0.83815 -4.89783,0.79524 -6.46846,-0.10253 z"
         id="path995"
         inkscape:connector-curvature="0" />
      <path
         sodipodi:nodetypes="ccccsccccccccccccccccccccccccccccccscccccccccsccccccccccscccccscccccccsscccccccscssssccccccccccccccccccccccccscccsccscscscccccccccccccccscccccccccccc"
         style="fill:#d9e0da;stroke-width:0.26458335"
         d="m 130.75602,296.48383 c -0.33677,-0.13507 -0.53895,-0.36428 -0.44928,-0.50937 0.0923,-0.14929 -0.006,-0.19904 -0.22572,-0.11461 -0.26074,0.10006 -0.53744,-0.16416 -0.84031,-0.8024 -0.3903,-0.82251 -0.40673,-1.11165 -0.12111,-2.13178 0.18174,-0.64911 0.42352,-1.12267 0.5373,-1.05235 0.11378,0.0703 0.13969,-0.12905 0.0576,-0.44305 -0.11123,-0.42532 -0.0608,-0.5162 0.19784,-0.35636 0.21945,0.13562 0.28313,0.11096 0.17311,-0.067 -0.0957,-0.15488 -0.0975,-0.48091 -0.004,-0.72453 0.13722,-0.35758 0.21867,-0.37493 0.4227,-0.09 0.18341,0.25613 0.20784,0.21544 0.0891,-0.14837 -0.0982,-0.30069 0.0242,-0.71592 0.30577,-1.03767 0.25817,-0.29501 0.31247,-0.44435 0.12066,-0.33186 -0.19181,0.11248 -0.0278,-0.4326 0.36447,-1.21129 0.39226,-0.7787 0.81039,-1.45327 0.92918,-1.49905 0.11879,-0.0458 0.14291,-0.27367 0.0536,-0.50643 -0.11659,-0.30384 -0.0636,-0.3621 0.18804,-0.20661 0.229,0.14153 0.28712,0.11414 0.16772,-0.079 -0.10048,-0.16259 0.0937,-0.74654 0.43152,-1.29765 0.33782,-0.55112 0.76929,-1.35803 0.95883,-1.79314 0.33082,-0.75942 0.35958,-0.77064 0.71823,-0.28016 0.40557,0.55464 0.51513,0.24928 0.12926,-0.36027 -0.27812,-0.43935 0.2192,-1.39337 0.60278,-1.1563 0.13888,0.0858 0.17031,0.0231 0.0698,-0.13949 -0.23798,-0.38505 1.10046,-3.02876 1.4302,-2.82497 0.13867,0.0857 0.19522,7.9e-4 0.12565,-0.18865 -0.14446,-0.39345 0.0464,-0.70494 0.77865,-1.27051 0.29733,-0.22967 0.43088,-0.25881 0.31698,-0.0692 -0.13527,0.22523 -0.0637,0.2766 0.229,0.1643 0.23421,-0.0899 0.3654,-0.32088 0.29154,-0.51335 -0.17772,-0.46312 1.242,-1.1608 2.0162,-0.9908 0.49527,0.10875 0.53128,0.0785 0.20434,-0.17157 -0.31249,-0.23904 -0.19998,-0.26877 0.52917,-0.13984 1.18787,0.21006 2.13774,0.67854 1.95973,0.96657 -0.0764,0.12358 -0.0128,0.2247 0.14132,0.2247 0.43596,0 0.33207,0.8738 -0.26412,2.22158 -0.32775,0.74095 -0.65981,1.15913 -0.83463,1.05109 -0.16877,-0.10431 -0.21539,-0.0582 -0.11136,0.11013 0.22826,0.36932 -0.73126,1.97349 -1.02251,1.70948 -0.11982,-0.10862 -0.13234,-0.0489 -0.0278,0.13278 0.10452,0.18165 0.0172,0.57695 -0.19393,0.87845 -0.28466,0.40641 -0.42486,0.45785 -0.54206,0.19891 -0.0869,-0.19211 -0.0936,-0.0875 -0.0147,0.23249 0.0933,0.37836 -0.0464,0.77153 -0.39931,1.12448 -0.29849,0.29848 -0.48463,0.5427 -0.41364,0.5427 0.19185,0 -1.44349,2.99953 -1.80365,3.30825 -0.17039,0.14604 -0.34847,0.4437 -0.39575,0.66145 -0.0473,0.21776 -0.34493,0.68301 -0.66146,1.0339 -0.31652,0.35089 -0.41432,0.54458 -0.21732,0.43044 0.39987,-0.23169 -0.42547,1.17993 -0.88123,1.50722 -0.17519,0.1258 -0.17735,0.19724 -0.006,0.20249 0.14552,0.004 0.086,0.12351 -0.13229,0.26458 -0.27704,0.17903 0.2223,0.26769 1.65364,0.29361 2.3821,0.0431 2.48531,0.053 2.68916,0.25683 0.0845,0.0845 1.07285,0.11145 2.19643,0.06 1.12357,-0.0515 2.22525,-0.0177 2.44817,0.0751 0.22292,0.0928 1.12668,0.1477 2.00836,0.12205 l 1.60306,-0.0466 0.0136,2.13307 0.0136,2.13306 -1.21979,0.0174 c -1.55587,0.0222 -4.10423,0.20307 -5.40644,0.38385 -0.74287,0.10313 -0.9598,0.0565 -0.81649,-0.17535 0.14065,-0.22757 0.0537,-0.25372 -0.31126,-0.0936 -0.7347,0.32235 -4.65761,0.42752 -4.46742,0.11979 0.0857,-0.13863 -0.11915,-0.25022 -0.45516,-0.248 -0.44354,0.003 -0.51257,0.0664 -0.25195,0.23151 0.22238,0.14091 0.25757,0.29014 0.0925,0.39218 -0.40693,0.2515 -3.23783,0.12887 -3.07584,-0.13324 0.0782,-0.12645 0.016,-0.22991 -0.1381,-0.22991 -0.15411,0 -0.2802,0.11906 -0.2802,0.26458 0,0.32036 -0.4516,0.31521 -1.27377,-0.0145 z m 0.67294,-0.40991 c -0.0879,-0.0879 -0.31612,-0.0973 -0.50712,-0.0209 -0.21106,0.0845 -0.14837,0.14715 0.15986,0.15985 0.27891,0.0115 0.43518,-0.051 0.34726,-0.13897 z m 9.06749,-0.43001 c 0,-0.15487 -0.16812,-0.12915 -0.39687,0.0607 -0.21828,0.18116 -0.39688,0.37059 -0.39688,0.42097 0,0.0504 0.1786,0.0231 0.39688,-0.0607 0.21828,-0.0838 0.39687,-0.27319 0.39687,-0.42096 z m 0.92605,0.0607 c -0.0899,-0.14552 -0.30533,-0.26276 -0.47864,-0.26053 -0.18934,0.002 -0.15671,0.10642 0.0818,0.26053 0.5083,0.32849 0.59989,0.32849 0.39688,0 z m 6.66303,-0.57878 c -0.0845,-0.21106 -0.14716,-0.14837 -0.15985,0.15986 -0.0115,0.27891 0.051,0.43518 0.13896,0.34726 0.0879,-0.0879 0.0973,-0.31612 0.0209,-0.50712 z m -8.98365,-2.22691 c -0.0879,-0.0879 -0.31612,-0.0973 -0.50712,-0.0209 -0.21107,0.0845 -0.14837,0.14715 0.15985,0.15985 0.27892,0.0115 0.43519,-0.0511 0.34727,-0.13897 z m 1.12999,-0.89848 c 0,-0.14552 -0.20836,-0.26276 -0.46302,-0.26053 -0.3957,0.003 -0.40532,0.0413 -0.0661,0.26053 0.49933,0.32269 0.52917,0.32269 0.52917,0 z m -4.2373,-2.65324 c -0.29128,-0.54426 -0.79314,-0.4873 -0.78573,0.0892 0.003,0.21493 0.0752,0.20291 0.22776,-0.0378 0.18012,-0.28414 0.25505,-0.27126 0.38452,0.0662 0.0885,0.23048 0.22827,0.41906 0.31071,0.41906 0.0825,0 0.0207,-0.24146 -0.13726,-0.53658 z m -3.34431,-1.45921 c -0.0862,-0.22456 -0.21343,-0.35154 -0.28278,-0.28219 -0.0694,0.0694 -0.0476,0.25309 0.0483,0.40829 0.26089,0.42213 0.41338,0.34013 0.23448,-0.1261 z m 0.32216,-1.2399 c 0.0903,-0.0903 -0.0219,-0.13688 -0.24927,-0.10351 -0.22741,0.0334 -0.48735,0.13457 -0.57766,0.22488 -0.0903,0.0903 0.0219,0.13689 0.24927,0.10351 0.2274,-0.0334 0.48735,-0.13457 0.57766,-0.22488 z m 5.59061,-1.41952 c 0.0434,-0.42905 0.0305,-0.4347 -0.0862,-0.0379 -0.0754,0.25645 -0.23895,0.40333 -0.3634,0.32641 -0.12445,-0.0769 -0.2946,-0.0293 -0.37811,0.10583 -0.0835,0.13512 0.0571,0.21511 0.31245,0.17776 0.25535,-0.0374 0.48721,-0.2948 0.51523,-0.57209 z m -1.44268,-7.07952 c 0.16859,0.1042 0.20552,0.0497 0.0914,-0.13496 -0.22512,-0.36426 -0.69335,-0.14553 -0.66317,0.30978 0.0149,0.22554 0.059,0.22063 0.15489,-0.0173 0.0737,-0.18281 0.26129,-0.25371 0.41687,-0.15756 z m 2.43876,-2.53449 c 0.0837,-0.13547 0.0511,-0.30882 -0.0726,-0.38524 -0.12364,-0.0764 -0.2248,0.0344 -0.2248,0.2463 0,0.44614 0.0834,0.48511 0.29738,0.13894 z m 0.86569,-0.7073 c -0.0879,-0.0879 -0.31613,-0.0973 -0.50712,-0.0209 -0.21107,0.0845 -0.14838,0.14716 0.15985,0.15985 0.27891,0.0115 0.43518,-0.051 0.34727,-0.13896 z m -14.19496,20.90759 c 0.0127,-0.30822 0.0754,-0.37092 0.15985,-0.15985 0.0764,0.191 0.067,0.4192 -0.0209,0.50712 -0.0879,0.0879 -0.15046,-0.0684 -0.13897,-0.34727 z"
         id="path993"
         inkscape:connector-curvature="0" />
      <g
         transform="translate(-75.637276,-23.519718)"
         id="g1036">
        <path
           sodipodi:nodetypes="sccssscscccccsccscscccsccscscscccscccccccsccsccccccccsccccccccccccscsscccccccccccccsscccccccccsccscccccccccccccccccscccscccccccccsscccccccccccccccccccscccccsccccccccccccccccccscccccscsccscscscscsccscccsccccccccccccccccsccccccccssc"
           inkscape:connector-curvature="0"
           id="path991"
           d="m 195.27342,333.24725 c 0,-0.36381 0.0601,-0.51263 0.13346,-0.33073 0.0734,0.1819 0.0734,0.47955 0,0.66146 -0.0734,0.1819 -0.13346,0.0331 -0.13346,-0.33073 z m 1.8717,-2.91042 c 0,-0.50932 0.0545,-0.71768 0.121,-0.46302 0.0665,0.25466 0.0665,0.67138 0,0.92604 -0.0666,0.25466 -0.121,0.0463 -0.121,-0.46302 z m 4.45742,-0.15434 c 0.0127,-0.30823 0.0754,-0.37092 0.15985,-0.15985 0.0764,0.19099 0.067,0.4192 -0.0209,0.50712 -0.0879,0.0879 -0.15045,-0.0684 -0.13896,-0.34727 z m -6.56341,-4.34358 c 0,-0.65484 0.0516,-0.92273 0.11466,-0.59531 0.0631,0.32742 0.0631,0.8632 0,1.19063 -0.0631,0.32742 -0.11466,0.0595 -0.11466,-0.59532 z m 6.87383,-3.57187 c 0.003,-0.58209 0.0571,-0.78906 0.1204,-0.45994 0.0633,0.32912 0.0609,0.80537 -0.005,1.05834 -0.0662,0.25296 -0.11801,-0.0163 -0.11507,-0.5984 z m 13.99797,-0.92604 c 0,-0.36381 0.0601,-0.51263 0.13345,-0.33073 0.0734,0.1819 0.0734,0.47955 0,0.66146 -0.0734,0.1819 -0.13345,0.0331 -0.13345,-0.33073 z m -8.33954,-1.19064 c 0.0838,-0.21828 0.26564,-0.39687 0.40418,-0.39687 0.13854,0 0.18459,0.10889 0.10234,0.24198 -0.0823,0.13309 1e-5,0.30229 0.18282,0.37599 0.18281,0.0737 0.0682,0.1434 -0.25463,0.15489 -0.41738,0.0148 -0.543,-0.0938 -0.43471,-0.37599 z m 3.65358,-0.10971 c 0.0823,-0.13309 -1e-5,-0.30229 -0.18282,-0.37599 -0.18281,-0.0737 -0.0575,-0.1434 0.27855,-0.15489 0.39852,-0.0136 0.54513,0.0856 0.42168,0.28533 -0.13864,0.22431 0.15794,0.26017 1.10886,0.13408 0.88545,-0.11741 1.17195,-0.0899 0.90124,0.0866 -0.50266,0.32771 -2.72821,0.3496 -2.52751,0.0249 z m -6.08347,-0.672 c -0.35719,-0.35719 -0.64943,-0.77391 -0.64943,-0.92604 0,-0.49831 0.27247,-0.29031 0.53939,0.41174 0.15361,0.40403 0.40591,0.63302 0.61081,0.55439 0.19201,-0.0737 0.3491,0.0333 0.3491,0.23769 0,0.50602 -0.0982,0.47394 -0.84987,-0.27778 z m 10.3493,0.41483 c -0.26254,-0.42482 0.47971,-0.80428 0.82958,-0.42411 0.25111,0.27285 0.23244,0.37975 -0.0878,0.50263 -0.52977,0.2033 -0.57027,0.19901 -0.7418,-0.0785 z m -8.93168,-0.21072 c 0.191,-0.0764 0.4192,-0.067 0.50712,0.0209 0.0879,0.0879 -0.0684,0.15046 -0.34726,0.13897 -0.30823,-0.0127 -0.37092,-0.0754 -0.15986,-0.15985 z m 10.10378,-0.34843 c -0.23847,-0.15411 -0.2711,-0.2581 -0.0818,-0.26053 0.17331,-0.002 0.3887,0.11501 0.47864,0.26053 0.20301,0.32849 0.11142,0.32849 -0.39688,0 z m 6.90006,-0.41892 c 0.0127,-0.30823 0.0754,-0.37092 0.15985,-0.15986 0.0764,0.191 0.067,0.4192 -0.0209,0.50712 -0.0879,0.0879 -0.15045,-0.0683 -0.13896,-0.34726 z m 0.28547,-1.16857 c 0,-0.3638 0.0601,-0.51263 0.13345,-0.33073 0.0734,0.1819 0.0734,0.47956 0,0.66146 -0.0734,0.1819 -0.13345,0.0331 -0.13345,-0.33073 z m -29.09437,-1.7198 c 0.005,-0.43656 0.0647,-0.58313 0.13178,-0.3257 0.0671,0.25744 0.0627,0.61462 -0.01,0.79375 -0.0725,0.17914 -0.12736,-0.0315 -0.12197,-0.46805 z m 19.47798,0.48072 c 0.191,-0.0764 0.4192,-0.067 0.50712,0.0209 0.0879,0.0879 -0.0684,0.15046 -0.34727,0.13897 -0.30822,-0.0127 -0.37092,-0.0754 -0.15985,-0.15985 z m 1.08471,-0.89756 c -0.29966,-0.18969 -0.27887,-0.23732 0.105,-0.24057 0.26324,-0.002 0.40505,-0.12311 0.31511,-0.26863 -0.0927,-0.15006 0.12954,-0.26459 0.51355,-0.26459 0.37239,0 0.67707,0.12609 0.67707,0.2802 0,0.15411 -0.10946,0.21255 -0.24325,0.12986 -0.13379,-0.0827 -0.41214,0.0186 -0.61855,0.22496 -0.24377,0.24377 -0.50624,0.2924 -0.74893,0.13877 z m -10.1741,-0.26222 c -0.0959,-0.1552 -0.11766,-0.33893 -0.0483,-0.40829 0.0694,-0.0693 0.1966,0.0576 0.28277,0.28219 0.17891,0.46622 0.0264,0.54823 -0.23447,0.1261 z m 6.42702,-0.69829 c 0.32742,-0.0631 0.8632,-0.0631 1.19063,0 0.32742,0.0631 0.0595,0.11466 -0.59532,0.11466 -0.65484,0 -0.92273,-0.0516 -0.59531,-0.11466 z m -6.01522,-0.66072 c -0.009,-0.39362 0.62164,-1.53381 0.84778,-1.53381 0.13076,0 0.15278,-0.13746 0.0489,-0.30546 -0.12057,-0.19508 -0.0722,-0.23339 0.13391,-0.10602 0.24478,0.15128 0.22117,0.31162 -0.0978,0.66407 -0.23127,0.25555 -0.3776,0.63068 -0.32519,0.83363 0.0524,0.20294 0.0409,0.26622 -0.0256,0.14062 -0.0665,-0.12561 -0.22379,-0.0661 -0.34946,0.13229 -0.12568,0.19836 -0.23033,0.27697 -0.23256,0.17468 z m 5.99231,-0.75862 c -0.27949,-0.39903 -0.42155,-0.4529 -0.52328,-0.19843 -0.0927,0.23187 -0.14666,0.24336 -0.16052,0.0342 -0.0413,-0.62322 0.45897,-0.59328 0.88231,0.0528 0.51957,0.79297 0.34679,0.88999 -0.19851,0.11146 z m 0.7159,-0.32793 c 0.0282,-0.19196 0.31376,-0.68277 0.63463,-1.09069 0.32087,-0.40793 0.51846,-0.84675 0.4391,-0.97517 -0.0794,-0.12841 -0.0112,-0.23348 0.15151,-0.23348 0.1627,0 0.21086,-0.13746 0.10703,-0.30546 -0.11828,-0.19138 -0.0724,-0.23356 0.12272,-0.11294 0.22586,0.13958 0.15095,0.47823 -0.27242,1.2315 -0.32117,0.57144 -0.6881,1.03898 -0.81542,1.03898 -0.12731,0 -0.16297,0.11084 -0.0793,0.2463 0.0837,0.13547 0.0417,0.31463 -0.0934,0.39814 -0.13512,0.0835 -0.22262,-0.005 -0.19445,-0.19718 z m -4.2096,-1.25861 c -0.0959,-0.1552 -0.11765,-0.33893 -0.0483,-0.40829 0.0693,-0.0693 0.1966,0.0576 0.28278,0.28219 0.1789,0.46623 0.0264,0.54823 -0.23448,0.1261 z m -0.88788,-1.17302 c -0.0175,-0.54182 0.68898,-1.53007 0.87667,-1.22637 0.10209,0.16518 0.0777,0.30033 -0.0541,0.30033 -0.13187,0 -0.36897,0.26789 -0.52688,0.59531 -0.15791,0.32742 -0.29095,0.47625 -0.29564,0.33073 z m 0.61759,-0.0716 c 0.0903,-0.0903 0.35025,-0.1915 0.57766,-0.22488 0.2274,-0.0334 0.33957,0.0132 0.24927,0.10351 -0.0903,0.0903 -0.35026,0.1915 -0.57766,0.22488 -0.2274,0.0334 -0.33957,-0.0132 -0.24927,-0.10351 z m 6.39916,-0.71162 c 0.10762,-0.28045 -0.005,-0.35677 -0.41224,-0.27842 -0.31562,0.0608 -0.49163,-0.003 -0.40287,-0.14712 0.0867,-0.14029 0.25947,-0.19214 0.38392,-0.11523 0.12445,0.0769 0.28101,-0.07 0.3479,-0.32641 0.11345,-0.43492 0.12369,-0.43409 0.15232,0.0124 0.0177,0.2764 0.15364,0.40265 0.32167,0.2988 0.20451,-0.12639 0.20174,-0.0131 -0.009,0.38126 -0.34122,0.63758 -0.60545,0.75864 -0.38139,0.17474 z m 0.89347,-1.71471 c 0,-0.13693 0.121,-0.32375 0.2689,-0.41516 0.14789,-0.0914 0.20811,-0.26454 0.13381,-0.38476 -0.0743,-0.12022 0.0442,-0.28739 0.26339,-0.37149 0.35169,-0.13495 0.35072,-0.0606 -0.008,0.63374 -0.41039,0.79359 -0.65779,0.99582 -0.65779,0.53767 z m -5.93611,-1.41609 c 0.0994,-0.26093 0.2473,-0.40778 0.32876,-0.32632 0.0815,0.0815 1.7e-4,0.29496 -0.18065,0.47444 -0.26131,0.25936 -0.2917,0.22897 -0.14811,-0.14812 z m 7.09406,-0.91482 c -0.018,-0.40007 0.0238,-0.57227 0.0929,-0.38266 0.0934,0.25663 0.22343,0.22281 0.5085,-0.13229 0.2953,-0.36785 0.28763,-0.28022 -0.0335,0.38285 -0.22907,0.47294 -0.44319,0.85981 -0.47583,0.85971 -0.0326,-1e-4 -0.0741,-0.32752 -0.092,-0.72761 z m -6.24092,-0.10132 c -0.066,-0.19791 0.32805,-1.18545 0.87559,-2.19454 0.94495,-1.74147 1.61157,-2.30006 1.99825,-1.6744 0.10275,0.16625 0.0489,0.20445 -0.13124,0.0931 -0.17112,-0.10575 -0.30724,-0.0365 -0.30951,0.15756 -0.003,0.27359 -0.0484,0.27657 -0.21492,0.0142 -0.27055,-0.42613 -1.1919,1.42092 -0.93362,1.87165 0.0985,0.17191 0.0825,0.22511 -0.0356,0.11824 -0.38645,-0.34979 -0.90732,0.66553 -0.61838,1.20541 0.14407,0.26919 0.19276,0.55862 0.10821,0.64317 -0.0846,0.0846 -0.15555,-0.0149 -0.15778,-0.2211 -0.003,-0.31252 -0.042,-0.31487 -0.23255,-0.0142 -0.19248,0.3038 -0.24742,0.30394 -0.34845,7.9e-4 z m 7.7288,-2.0813 c 0.15576,-0.29104 0.34274,-0.52917 0.4155,-0.52917 0.0728,0 0.005,0.23813 -0.15091,0.52917 -0.15576,0.29104 -0.34274,0.52917 -0.4155,0.52917 -0.0728,0 -0.005,-0.23813 0.15091,-0.52917 z m 0.42413,-1.01424 c -0.075,-0.12126 0.0319,-0.22048 0.23733,-0.22048 0.20548,0 0.31228,0.0992 0.23733,0.22048 -0.075,0.12127 -0.18174,0.22049 -0.23733,0.22049 -0.0556,0 -0.16238,-0.0992 -0.23733,-0.22049 z m 0.65296,-0.70555 c 0,-0.14552 0.17015,-0.56224 0.37812,-0.92604 0.20797,-0.36381 0.37813,-0.5424 0.37813,-0.39688 0,0.14552 -0.17016,0.56224 -0.37813,0.92604 -0.20797,0.36381 -0.37812,0.5424 -0.37812,0.39688 z m -6.47112,-0.97446 c 0.0764,-0.12364 0.24977,-0.1563 0.38523,-0.0726 0.34618,0.21394 0.3072,0.29738 -0.13893,0.29738 -0.21188,0 -0.32272,-0.10116 -0.2463,-0.22481 z m 1.05087,-1.36675 c 0.12737,-0.32848 1.73485,-1.49525 2.06005,-1.49525 0.10872,0 0.12966,0.11005 0.0465,0.24456 -0.0831,0.13451 0.0587,0.30143 0.31512,0.37093 0.25644,0.0695 0.0495,0.10828 -0.45979,0.0862 -0.74693,-0.0324 -0.911,0.0493 -0.84829,0.42282 0.0428,0.25466 -0.0168,0.47213 -0.13229,0.48326 -0.11552,0.0111 -0.41016,0.0589 -0.65474,0.1062 -0.25164,0.0486 -0.39342,-0.0463 -0.32659,-0.21869 z m 1.52094,-0.29297 c 0,-0.21188 0.10116,-0.32271 0.2248,-0.2463 0.12364,0.0764 0.15631,0.24977 0.0726,0.38524 -0.21395,0.34617 -0.29738,0.3072 -0.29738,-0.13894 z m 4.22922,-0.31624 c 0.0947,-0.0948 -0.0342,-0.33945 -0.28663,-0.54377 -0.41179,-0.33334 -0.39779,-0.34186 0.1364,-0.083 0.62968,0.30514 0.80685,0.79903 0.28664,0.79903 -0.16978,0 -0.23116,-0.0775 -0.13641,-0.17227 z m -3.12679,-0.88606 c -0.20695,-0.33486 0.14331,-0.33486 0.66146,0 0.34202,0.22103 0.33504,0.25704 -0.0505,0.26053 -0.24607,0.002 -0.52099,-0.11501 -0.61093,-0.26053 z m 1.38906,-0.17523 c 0.18191,-0.0734 0.47956,-0.0734 0.66146,0 0.1819,0.0734 0.0331,0.13345 -0.33073,0.13345 -0.3638,0 -0.51263,-0.06 -0.33073,-0.13345 z"
           style="fill:#d8dcd9;stroke-width:0.26458335" />
        <path
           sodipodi:nodetypes="ccscccccscccccccscccccccccccsccssccscccccccccccccccccccc"
           inkscape:connector-curvature="0"
           id="path987"
           d="m 266.47071,362.42188 c 0.69123,-0.0545 1.82232,-0.0545 2.51355,0 0.69122,0.0545 0.12567,0.0991 -1.25678,0.0991 -1.38244,0 -1.94799,-0.0446 -1.25677,-0.0991 z m 4.03215,-18.45865 0.003,-17.99167 2.15834,-0.13229 c 1.18709,-0.0728 2.10279,-0.043 2.0349,0.0662 -0.0679,0.10914 -1.00855,0.19844 -2.09036,0.19844 h -1.96692 l -0.0707,17.92552 -0.0707,17.92552 0.003,-17.99167 z m -37.64043,-12.63385 -0.0599,-5.22552 h -1.96876 c -1.08281,0 -2.02435,-0.0893 -2.09229,-0.19844 -0.0679,-0.10914 0.8253,-0.15938 1.98499,-0.11164 1.32697,0.0546 2.15379,0.20476 2.23064,0.40503 0.0672,0.17502 0.0868,2.57674 0.0437,5.33715 l -0.0784,5.01894 z m 12.19553,-5.4238 c 3.75733,-0.0414 9.82952,-0.0414 13.49375,9e-5 3.66423,0.0415 0.59005,0.0754 -6.83152,0.0753 -7.42156,-4e-5 -10.41957,-0.034 -6.66223,-0.0754 z m -19.04569,-3.50589 c 0,-1.09141 0.0467,-1.53789 0.10379,-0.99219 0.0571,0.54571 0.0571,1.43867 0,1.98438 -0.0571,0.5457 -0.10379,0.0992 -0.10379,-0.99219 z m 51.32917,0 c 0,-1.09141 0.0467,-1.53789 0.10379,-0.99219 0.0571,0.54571 0.0571,1.43867 0,1.98438 -0.0571,0.5457 -0.10379,0.0992 -0.10379,-0.99219 z m -75.9487,-5.42396 c 0.002,-0.7276 0.0534,-0.99386 0.11419,-0.59167 0.0608,0.40218 0.0592,0.99749 -0.004,1.32291 -0.0628,0.32543 -0.11256,-0.004 -0.11058,-0.73124 z m -4.81728,-2.66824 c 0.0127,-0.30823 0.0754,-0.37092 0.15985,-0.15985 0.0764,0.19099 0.067,0.4192 -0.0209,0.50712 -0.0879,0.0879 -0.15045,-0.0684 -0.13896,-0.34727 z m 4.5527,-6.59254 c 0.002,-0.7276 0.0534,-0.99385 0.11418,-0.59167 0.0608,0.40218 0.0592,0.9975 -0.004,1.32292 -0.0628,0.32542 -0.11255,-0.004 -0.11057,-0.73125 z m -4.7625,-2.11666 c 0.002,-0.72761 0.0534,-0.99386 0.11418,-0.59168 0.0608,0.40219 0.0592,0.9975 -0.004,1.32292 -0.0628,0.32542 -0.11255,-0.004 -0.11057,-0.73124 z"
           style="fill:#b4cde5;stroke-width:0.26458335" />
        <path
           sodipodi:nodetypes="cccccccccccccccsscccssccccsccccccccccccscsssccssccsccccc"
           inkscape:connector-curvature="0"
           id="path983"
           d="m 201.26746,335.97741 c 0.19099,-0.0764 0.4192,-0.067 0.50712,0.0209 0.0879,0.0879 -0.0684,0.15046 -0.34727,0.13897 -0.30823,-0.0127 -0.37092,-0.0754 -0.15985,-0.15985 z m 4.22716,-0.0154 c 0.91521,-0.0518 2.34396,-0.0514 3.175,10e-4 0.83104,0.0523 0.0822,0.0947 -1.66401,0.0942 -1.74625,-5.3e-4 -2.4262,-0.0433 -1.51099,-0.0952 z m 7.54325,-0.001 c 1.28045,-0.0486 3.30452,-0.0484 4.49792,5.2e-4 1.1934,0.0489 0.14576,0.0887 -2.3281,0.0884 -2.47385,-2.7e-4 -3.45027,-0.0403 -2.16982,-0.0889 z m 6.99847,0.022 c 0.1819,-0.0734 0.47956,-0.0734 0.66146,0 0.1819,0.0734 0.0331,0.13345 -0.33073,0.13345 -0.36381,0 -0.51263,-0.0601 -0.33073,-0.13345 z m 10.78432,-10.14358 c -1.74025,-0.10889 -2.12969,-0.21417 -2.20221,-0.59531 -0.0834,-0.43812 1.15808,-0.46302 23.08234,-0.46302 19.9978,0 23.17044,0.0522 23.17044,0.38126 0,0.20969 -0.12686,0.45966 -0.2819,0.55549 -0.33052,0.20427 -40.65713,0.31629 -43.76867,0.12158 z m -30.61154,-0.18074 c 0.191,-0.0764 0.4192,-0.067 0.50712,0.0209 0.0879,0.0879 -0.0684,0.15045 -0.34726,0.13896 -0.30823,-0.0127 -0.37092,-0.0754 -0.15986,-0.15985 z m 1.15953,-6.03697 c 0.005,-0.43656 0.0647,-0.58312 0.13177,-0.32569 0.0671,0.25743 0.0627,0.61462 -0.01,0.79375 -0.0725,0.17913 -0.12736,-0.0315 -0.12197,-0.46806 z m -4.79319,-6.10798 c 0.0127,-0.30823 0.0754,-0.37092 0.15985,-0.15985 0.0764,0.19099 0.067,0.4192 -0.0209,0.50712 -0.0879,0.0879 -0.15045,-0.0684 -0.13896,-0.34727 z m 0.0209,-1.16858 c 0,-0.3638 0.0601,-0.51263 0.13345,-0.33073 0.0734,0.18191 0.0734,0.47956 0,0.66146 -0.0734,0.1819 -0.13345,0.0331 -0.13345,-0.33073 z m 4.52819,-2.38125 c 0,-0.65484 0.0516,-0.92273 0.11466,-0.59531 0.0631,0.32742 0.0631,0.8632 0,1.19063 -0.0631,0.32742 -0.11466,0.0595 -0.11466,-0.59532 z m -4.7625,-7.14375 c 0,-0.65484 0.0516,-0.92273 0.11466,-0.59531 0.0631,0.32742 0.0631,0.8632 0,1.19063 -0.0631,0.32742 -0.11466,0.0595 -0.11466,-0.59532 z m 0.93666,-2.03282 c 0.19099,-0.0764 0.4192,-0.067 0.50712,0.0209 0.0879,0.0879 -0.0684,0.15045 -0.34727,0.13896 -0.30823,-0.0127 -0.37092,-0.0754 -0.15985,-0.15985 z"
           style="fill:#93bdeb;stroke-width:0.26458335" />
        <path
           sodipodi:nodetypes="sssssccsccccccccccccsssccscsccscccccc"
           inkscape:connector-curvature="0"
           id="path981"
           d="m 212.49571,335.69608 c 1.27331,-0.0485 3.3569,-0.0485 4.63021,0 1.27331,0.0485 0.23151,0.0882 -2.3151,0.0882 -2.54662,0 -3.58841,-0.0397 -2.31511,-0.0882 z m -10.85268,-4.30092 c 0,-0.50932 0.0545,-0.71768 0.12101,-0.46302 0.0665,0.25466 0.0665,0.67138 0,0.92604 -0.0666,0.25467 -0.12101,0.0463 -0.12101,-0.46302 z m 0.42638,-7.87135 c -0.0228,-1.27331 -0.0236,-2.85089 -0.002,-3.50573 0.17045,-5.11435 2.87039,-12.59539 6.5582,-18.17152 2.43011,-3.67445 5.1367,-5.59653 8.23048,-5.84487 1.47423,-0.11834 1.84726,-0.0405 3.34971,0.69918 0.92991,0.45779 1.89587,1.14542 2.14659,1.52806 1.06929,1.63195 0.66647,4.25502 -1.09108,7.10477 -2.35217,3.81391 -3.28114,5.60928 -3.84913,7.43906 l -0.60632,1.95365 -1.59291,-0.0152 c -0.87609,-0.008 -2.03375,-0.0977 -2.57258,-0.19843 l -0.97968,-0.18319 1.27062,-2.17851 c 0.69884,-1.19818 1.32821,-2.12091 1.3986,-2.05052 0.0704,0.0704 0.12799,-0.03 0.12799,-0.2231 0,-0.19311 1.14156,-2.366 2.53679,-4.82865 2.45136,-4.32676 2.67486,-4.85142 2.60895,-6.12441 -0.0452,-0.87371 -1.40716,-1.48344 -2.97666,-1.33263 -2.45827,0.23621 -3.61136,1.56565 -7.17396,8.27115 -2.37336,4.46709 -4.22775,8.49374 -4.79405,10.40981 -0.36251,1.22655 -0.36917,1.53062 -0.0503,2.29381 0.70803,1.69455 1.87943,1.96867 7.13006,1.66848 2.30752,-0.13192 4.23054,-0.20482 4.27337,-0.16199 0.0969,0.0969 -0.33853,4.04919 -0.55504,5.03833 l -0.15927,0.7276 h -6.59356 -6.59356 l -0.0414,-2.3151 z"
           style="fill:#b2bac0;stroke-width:0.26458335" />
        <path
           sodipodi:nodetypes="ccccccccccscccccccccsccccccc"
           inkscape:connector-curvature="0"
           id="path977"
           d="M 265.08165,344.22745 V 326.1035 h 2.64583 2.64584 v 18.12395 18.12396 h -2.64584 -2.64583 z m -29.05125,15.16063 c -0.46737,-0.46737 -0.39977,-1.53458 0.0972,-1.53458 0.26962,0 0.36781,-0.16199 0.28068,-0.46302 -0.0737,-0.25467 -0.26791,-1.41553 -0.43156,-2.57969 -0.21579,-1.53502 -2.38365,-14.86061 -2.9346,-18.03863 -0.0207,-0.11969 -0.0236,-2.56911 -0.006,-5.44314 l 0.0313,-5.22552 h 2.64583 2.64583 v 16.80104 16.80104 h -1.00541 c -0.55298,0 -1.14829,-0.14288 -1.32292,-0.3175 z m -14.07583,-23.23041 c -0.23847,-0.15411 -0.2711,-0.2581 -0.0818,-0.26053 0.17331,-0.002 0.38869,0.11501 0.47863,0.26053 0.20302,0.32849 0.11142,0.32849 -0.39687,0 z"
           style="fill:#7ba7d7;stroke-width:0.26458335" />
        <path
           sodipodi:nodetypes="ccccccsccscccccccccccsccsssccsccccccccccccscccccscsccccccscccccccccccccccccccccccccccccccccsscssscsccscsscsccccccccccccccccccccsscsccsccccccccccccscccsccsccsccccccccccccsccscsccccccsccscascccsccccccccccscccccccsscsccscsssccs"
           inkscape:connector-curvature="0"
           id="path975"
           d="m 200.90863,340.3723 c -0.0836,-0.13524 0.0634,-0.25196 0.32668,-0.25939 0.26324,-0.007 2.02644,-0.0309 3.91822,-0.0523 l 3.43958,-0.0388 -3.37344,-0.0877 -3.37344,-0.0877 v -1.09475 c 0,-0.60212 -0.0518,-1.043 -0.11502,-0.97973 -0.0958,0.0958 -0.30725,1.11487 -0.39239,1.8914 -0.012,0.10914 -0.21523,0.19843 -0.4517,0.19843 -0.33837,0 -0.3955,-0.17224 -0.26823,-0.80861 0.10609,-0.53043 0.016,-1.03107 -0.26194,-1.45521 -0.40753,-0.62197 -0.39983,-0.64775 0.20208,-0.67706 0.34416,-0.0168 0.82356,-0.0111 1.06533,0.0127 0.24177,0.0237 0.52805,-0.10002 0.63619,-0.27499 0.11851,-0.19175 0.085,-0.24913 -0.0844,-0.14444 -0.15456,0.0955 -0.55991,0.0619 -0.90077,-0.0746 -0.5831,-0.23364 -0.56982,-0.24932 0.22453,-0.2651 0.46435,-0.009 0.92572,0.115 1.02526,0.27606 0.12616,0.20414 0.24987,0.1841 0.40844,-0.0661 0.16737,-0.26415 0.22853,-0.27161 0.23151,-0.0283 0.002,0.1819 0.13014,0.33073 0.28425,0.33073 0.15411,0 0.2136,-0.10776 0.1322,-0.23947 -0.0853,-0.13794 1.42252,-0.25431 3.55626,-0.27448 2.40468,-0.0227 3.70426,0.0613 3.70426,0.23946 0,0.17816 1.48571,0.27449 4.23333,0.27449 2.64583,0 4.23333,-0.0992 4.23333,-0.26459 0,-0.49477 2.28428,-0.29652 2.94726,0.25579 0.49091,0.40897 0.53156,0.52224 0.18991,0.52916 -0.52506,0.0106 -0.75592,0.5432 -0.75592,1.74384 v 0.898 l -4.43177,0.0827 -4.43177,0.0827 4.49792,-0.0102 4.49792,-0.0102 0.1587,-1.19063 0.15869,-1.19062 0.0795,1.05833 0.0795,1.05833 0.1851,-1.19065 0.18511,-1.19062 0.0397,1.22634 c 0.0619,1.91079 -0.37233,2.08095 -5.31051,2.08095 -2.22528,0 -4.46189,-0.12597 -4.97025,-0.27993 -1.66799,-0.50517 -2.19488,-0.54797 -2.41224,-0.19598 -0.25505,0.413 -8.85828,0.59498 -9.10695,0.19263 z m 6.61687,-3.18943 c 1.38755,-0.0289 2.52282,-0.13882 2.52282,-0.24423 0,-0.31007 -5.49051,-0.30765 -5.68219,0.002 -0.0934,0.15117 -0.58659,0.27486 -1.09592,0.27486 -0.50932,0 -0.8617,0.10411 -0.78306,0.23135 0.0803,0.12997 0.66278,0.13424 1.32925,0.01 0.65245,-0.1219 2.32154,-0.24528 3.7091,-0.2742 z m 14.16043,-0.39436 c 0.003,-0.21316 -0.30847,-0.22042 -1.12043,-0.0261 -0.61846,0.14798 -3.02947,0.35186 -5.35781,0.45305 l -4.23333,0.18398 4.7625,-0.0487 c 2.61937,-0.0268 4.97221,-0.14082 5.22852,-0.25346 0.37334,-0.16407 0.43415,-0.10686 0.30577,0.28768 -0.1326,0.40749 -0.11098,0.42399 0.12524,0.0956 0.15702,-0.21828 0.28732,-0.52971 0.28954,-0.69207 z m -24.24804,-11.53225 c -0.12202,-0.18886 -0.24523,-1.89119 -0.27379,-3.78296 -0.0286,-1.89177 -0.12231,-4.86834 -0.20832,-6.61459 -0.24033,-4.87884 -0.26092,-6.33043 -0.0939,-6.61641 0.0844,-0.14451 0.22425,-1.15572 0.31076,-2.24713 0.18902,-2.38462 0.0117,-2.1695 -0.32708,0.39688 -0.21209,1.60655 -0.23124,1.3961 -0.14446,-1.5875 0.055,-1.89177 0.10409,-3.54162 0.10904,-3.66633 0.005,-0.12471 0.18378,-0.15968 0.3974,-0.0777 0.21362,0.082 0.45877,0.0352 0.54478,-0.10398 0.086,-0.13917 0.7149,-0.23433 1.39754,-0.21147 l 1.24115,0.0416 -1.32291,0.18145 -1.32292,0.18145 1.37976,0.0416 c 1.06068,0.0319 1.44235,0.15854 1.65046,0.54739 0.15205,0.2841 0.26682,2.28473 0.26183,4.56406 -0.009,3.91425 0.20125,11.21317 0.46837,16.29402 0.12393,2.35742 0.10679,2.45427 -0.47246,2.66855 -1.01925,0.37704 -3.34961,0.37129 -3.59526,-0.009 z m 3.80445,-3.84547 c -0.0608,-0.40218 -0.1122,-0.13593 -0.11418,0.59167 -0.002,0.72761 0.0478,1.05667 0.11057,0.73125 0.0628,-0.32542 0.0644,-0.92074 0.004,-1.32292 z m -3.44272,-0.13593 c -0.0631,-0.32742 -0.11466,-0.0595 -0.11466,0.59531 0,0.65485 0.0516,0.92274 0.11466,0.59532 0.0631,-0.32743 0.0631,-0.86321 0,-1.19063 z m 2.91042,0 c -0.0631,-0.32742 -0.11466,-0.0595 -0.11466,0.59531 0,0.65485 0.0516,0.92274 0.11466,0.59532 0.0631,-0.32743 0.0631,-0.86321 0,-1.19063 z m -2.76933,-2.17481 c 0.0687,-0.35939 0.023,-0.59049 -0.10145,-0.51355 -0.21922,0.13549 -0.32963,1.16701 -0.12491,1.16701 0.0558,0 0.15766,-0.29406 0.22636,-0.65346 z m 3.03391,-2.05852 c -0.0631,-0.32742 -0.11466,-0.0595 -0.11466,0.59531 0,0.65484 0.0516,0.92273 0.11466,0.59531 0.0631,-0.32742 0.0631,-0.8632 0,-1.19062 z m -3.04357,-0.54373 c -0.13839,-0.17389 -0.20673,-0.61382 -0.15186,-0.97763 0.0684,-0.45371 0.0265,-0.54818 -0.13352,-0.30079 -0.19697,0.3045 -0.25563,0.3045 -0.37673,0 -0.0789,-0.19836 -0.15283,0.0263 -0.16432,0.49923 -0.0135,0.55507 0.0964,0.83645 0.30984,0.79375 0.18767,-0.0375 0.3802,0.27719 0.4451,0.7276 0.0993,0.68894 0.12816,0.71322 0.21875,0.18388 0.0574,-0.33543 -0.009,-0.75215 -0.14726,-0.92604 z m 2.90056,-3.09429 -0.14693,-1.7198 -0.16977,1.16328 c -0.0964,0.66077 -0.0468,1.42393 0.11498,1.76667 0.15662,0.33186 0.29913,0.58229 0.3167,0.55651 0.0176,-0.0258 -0.0342,-0.82078 -0.11498,-1.76666 z m -2.88393,-0.52917 c 0.0866,-1.03195 0.059,-1.45524 -0.0689,-1.05833 -0.21049,0.65319 -0.35515,3.1019 -0.17064,2.88837 0.0524,-0.0606 0.16018,-0.88415 0.23952,-1.83004 z m 2.75086,-2.18281 c -0.0734,-0.1819 -0.13345,-0.0331 -0.13345,0.33073 0,0.3638 0.0601,0.51263 0.13345,0.33073 0.0734,-0.18191 0.0734,-0.47956 0,-0.66146 z m -3.12319,-1.05834 c -0.0331,-1.45869 -0.0569,-1.52887 -0.20199,-0.59531 -0.15632,1.00601 -0.08,2.24896 0.13809,2.24896 0.0558,0 0.0846,-0.74414 0.0639,-1.65365 z m 2.86412,0.0165 c -0.0845,-0.21107 -0.14715,-0.14837 -0.15985,0.15985 -0.0115,0.27892 0.0511,0.43519 0.13897,0.34727 0.0879,-0.0879 0.0973,-0.31612 0.0209,-0.50712 z m 0.006,-2.92387 c -0.0633,-0.32912 -0.11747,-0.12215 -0.12041,0.45994 -0.003,0.58208 0.0488,0.85136 0.11507,0.5984 0.0662,-0.25297 0.0686,-0.72922 0.005,-1.05834 z m -2.91518,-0.13537 c -0.0666,-0.25467 -0.121,-0.0463 -0.121,0.46302 0,0.50932 0.0545,0.71768 0.121,0.46302 0.0666,-0.25466 0.0666,-0.67138 0,-0.92604 z m 0.54051,-3.83646 c -0.0557,-0.61847 -0.10128,-0.11245 -0.10128,1.12448 0,1.23692 0.0456,1.74294 0.10128,1.12448 0.0557,-0.61847 0.0557,-1.6305 0,-2.24896 z m 2.5287,0.85963 c -0.19016,-0.72719 -0.34646,-0.66431 -0.28208,0.11348 0.0292,0.35331 0.13579,0.59132 0.23678,0.5289 0.10099,-0.0624 0.12137,-0.35148 0.0453,-0.64238 z m -3.16833,-1.87439 c -0.11957,-0.11957 -0.15998,0.3426 -0.0898,1.02706 l 0.12762,1.24447 0.0898,-1.02706 c 0.0494,-0.56488 -0.008,-1.12489 -0.12763,-1.24447 z m 3.00789,0.23754 c -0.0845,-0.21106 -0.14715,-0.14837 -0.15985,0.15986 -0.0115,0.27891 0.0511,0.43518 0.13897,0.34726 0.0879,-0.0879 0.0973,-0.31612 0.0209,-0.50712 z m 26.0182,22.548 c -0.71698,-0.45337 1.1493,-1.01138 2.5892,-0.77415 0.68314,0.11255 11.62325,0.21173 24.31135,0.22041 13.93414,0.01 23.12956,0.1133 23.22151,0.26207 0.19807,0.3205 -0.39215,0.6879 -0.6136,0.38195 -0.21647,-0.29907 -1.72901,-0.48297 -1.54681,-0.18806 0.0752,0.1217 -10.17039,0.19662 -22.76795,0.16649 -18.39455,-0.044 -22.94739,-0.12215 -23.12168,-0.39688 -0.15776,-0.24868 -0.21813,-0.2068 -0.22107,0.15332 -0.004,0.43197 -0.0614,0.44891 -0.45172,0.1323 -0.30418,-0.24674 -0.38398,-0.25713 -0.24896,-0.0324 0.23801,0.39617 -0.56004,0.44817 -1.15027,0.075 z m 3.4344,-0.11024 c 0,-0.0558 -0.23829,-0.16374 -0.52953,-0.2399 -0.29125,-0.0762 -0.46281,-0.0305 -0.38126,0.10143 0.14241,0.23043 0.91079,0.34725 0.91079,0.13847 z m 46.0653,-0.71474 c -0.34851,-0.13941 -0.85453,-0.18337 -1.12448,-0.0977 -0.26995,0.0857 -0.49082,0.0386 -0.49082,-0.10459 0,-0.1432 0.12015,-0.30005 0.267,-0.34856 0.14685,-0.0485 -2.62135,-0.0588 -6.15156,-0.0229 -17.38457,0.17672 -40.4177,0.17723 -40.41762,8e-4 5e-5,-0.10914 -0.18502,-0.19844 -0.41128,-0.19844 -0.32559,0 -0.39455,-0.26151 -0.33073,-1.25403 l 0.0806,-1.25402 14.59252,-0.003 c 8.02588,-0.002 14.54085,0.0812 14.47771,0.18374 -0.0632,0.10256 4.44303,0.16558 10.01372,0.14003 l 10.12855,-0.0464 -9.92188,-0.14487 -9.92187,-0.14487 9.65729,-0.0577 c 5.31151,-0.0317 9.92518,0.0141 10.2526,0.10185 0.53853,0.14432 0.59531,0.32064 0.59531,1.84847 0,1.78712 -0.0896,1.88413 -1.29511,1.40192 z m 0.78228,-0.49665 c -0.20087,-0.12414 -0.55461,-0.15291 -0.78609,-0.0639 -0.32283,0.12409 -0.26678,0.2008 0.24059,0.32929 0.7768,0.19673 1.06574,0.0562 0.5455,-0.26535 z m 0.17039,-1.92832 c -0.0631,-0.32742 -0.11466,-0.0595 -0.11466,0.59531 0,0.65485 0.0516,0.92274 0.11466,0.59532 0.0631,-0.32743 0.0631,-0.86321 0,-1.19063 z m -45.89349,-0.65675 c -0.61847,-0.0557 -1.6305,-0.0557 -2.24896,0 -0.61847,0.0557 -0.11245,0.10128 1.12448,0.10128 1.23692,0 1.74294,-0.0456 1.12448,-0.10128 z m -4.56407,1.38435 c 0,-0.80036 0.11907,-1.4552 0.26459,-1.4552 0.14552,0 0.26458,0.58658 0.26458,1.30351 0,1.01896 0.10108,1.32993 0.46302,1.42452 0.28487,0.0744 0.18307,0.13281 -0.26458,0.15169 -0.70928,0.0299 -0.72761,-0.006 -0.72761,-1.42452 z"
           style="fill:#6d98d0;stroke-width:0.26458335" />
        <path
           sodipodi:nodetypes="scssscsscccsccscssccccccccccscccsccccccccccccccccccccccscsccccccccscccccccccscccccscssssssssscsscccccccccccscccccccsccccsccccccccsssccccccccccccccccsccsccssccssccsccscccccccccccsccsscsscccccccccccsccsccccsccsccccccccccccscccscccscsssccscsccsccsccccccccccccccccc"
           inkscape:connector-curvature="0"
           id="path973"
           d="m 237.10196,359.78781 c 0.25466,-0.0665 0.67138,-0.0665 0.92604,0 0.25467,0.0666 0.0463,0.121 -0.46302,0.121 -0.50932,0 -0.71768,-0.0545 -0.46302,-0.121 z m -1.61187,-1.40521 c 0,-0.3638 0.0601,-0.51263 0.13346,-0.33073 0.0734,0.18191 0.0734,0.47956 0,0.66146 -0.0734,0.1819 -0.13346,0.0331 -0.13346,-0.33073 z m -34.97248,-18.06616 c -0.40897,-0.32743 -0.46193,-1.02735 -0.13749,-1.81691 0.0986,-0.23994 0.0521,-0.51486 -0.10335,-0.61093 -0.15544,-0.0961 -0.28262,-0.30946 -0.28262,-0.47421 0,-0.16474 0.17461,-0.0684 0.38803,0.21406 0.25027,0.33124 0.33375,0.81889 0.23514,1.37348 -0.12049,0.67762 -0.0625,0.8599 0.27343,0.8599 0.23447,0 0.43611,-0.0893 0.44807,-0.19844 0.0851,-0.77653 0.29655,-1.79556 0.39239,-1.8914 0.0633,-0.0633 0.11502,0.37762 0.11502,0.97973 v 1.09475 l 3.37344,0.0877 3.37344,0.0877 -3.43958,0.0387 c -1.89178,0.0213 -3.65498,0.0448 -3.91822,0.0523 -0.26325,0.007 -0.40506,0.13257 -0.31512,0.27809 0.21323,0.34501 0.0939,0.3229 -0.40258,-0.0746 z m 1.27901,0.1584 c 0.191,-0.0764 0.4192,-0.067 0.50712,0.0209 0.0879,0.0879 -0.0684,0.15045 -0.34726,0.13896 -0.30823,-0.0127 -0.37092,-0.0754 -0.15986,-0.15985 z m 7.52409,-0.0102 c 0.40018,-0.0598 0.72761,-0.22709 0.72761,-0.37168 0,-0.26792 0.8245,-0.18091 2.24896,0.23734 0.60944,0.17895 0.27154,0.23423 -1.45521,0.23809 -1.23693,0.003 -1.92154,-0.0439 -1.52136,-0.10375 z m 12.5633,-0.10647 c 0.17948,-0.18082 0.39297,-0.26212 0.47443,-0.18065 0.0815,0.0815 -0.0654,0.2294 -0.32632,0.32876 -0.37708,0.14359 -0.40747,0.1132 -0.14811,-0.14811 z m -4.55991,-0.4267 4.36588,-0.0824 0.004,-0.98579 c 0.002,-0.54218 0.10752,-1.14913 0.23399,-1.34876 0.42827,-0.6761 0.68877,-0.17193 0.5293,1.02443 l -0.15869,1.19063 -0.0795,-1.05834 -0.0795,-1.05833 -0.1587,1.19063 -0.1587,1.19062 -4.43202,0.01 -4.43203,0.01 4.36588,-0.0824 z m -14.83695,-2.48413 c -0.0786,-0.12724 0.27374,-0.23134 0.78306,-0.23134 0.50933,0 1.00249,-0.12369 1.09592,-0.27487 0.19168,-0.31015 5.68219,-0.31256 5.68219,-0.002 0,0.10541 -1.13527,0.21532 -2.52282,0.24423 -1.38756,0.0289 -3.05665,0.15231 -3.7091,0.2742 -0.66647,0.12451 -1.24892,0.12025 -1.32925,-0.01 z m 18.86121,-0.19466 c 0.0584,-0.2535 -0.055,-0.29953 -0.38298,-0.15538 -0.25631,0.11264 -2.60915,0.22669 -5.22852,0.25345 l -4.7625,0.0487 4.23333,-0.19062 c 4.37813,-0.19714 5.84092,-0.39321 6.42736,-0.86149 0.2388,-0.19068 0.43832,-0.17593 0.66146,0.0489 0.2501,0.25202 0.23061,0.28815 -0.0897,0.16632 -0.26444,-0.10057 -0.5034,0.0577 -0.67535,0.44735 -0.14636,0.33164 -0.22874,0.4409 -0.18307,0.24279 z m -21.17584,-0.72281 c 0.13941,-0.36329 0.44199,-0.34817 1.5808,0.079 0.16719,0.0627 0.38257,-0.0131 0.47864,-0.1686 0.22515,-0.3643 0.67261,-0.36591 0.67261,-0.002 0,0.15411 -0.11084,0.2117 -0.2463,0.12798 -0.13547,-0.0837 -0.3124,-0.0453 -0.39319,0.0854 -0.0808,0.13071 -0.61815,0.24417 -1.19416,0.25211 -0.81502,0.0112 -1.01426,-0.0716 -0.8984,-0.37351 z m 2.99663,-0.12324 c 0,-0.15411 0.11906,-0.20661 0.26458,-0.11668 0.14552,0.0899 0.26459,0.21603 0.26459,0.2802 0,0.0642 -0.11907,0.11668 -0.26459,0.11668 -0.14552,0 -0.26458,-0.12609 -0.26458,-0.2802 z m 7.67292,0.0156 c 0,-0.16537 1.5875,-0.26459 4.23333,-0.26459 2.64583,0 4.23333,0.0992 4.23333,0.26459 0,0.16536 -1.5875,0.26458 -4.23333,0.26458 -2.64583,0 -4.23333,-0.0992 -4.23333,-0.26458 z m -12.63386,-10.76572 c 0.25466,-0.0666 0.67138,-0.0666 0.92604,0 0.25467,0.0666 0.0463,0.121 -0.46302,0.121 -0.50932,0 -0.71768,-0.0544 -0.46302,-0.121 z m 30.21777,-1.15815 c -0.0959,-0.1552 -0.11766,-0.33893 -0.0483,-0.40828 0.0693,-0.0694 0.1966,0.0576 0.28277,0.28218 0.17891,0.46623 0.0264,0.54824 -0.23447,0.1261 z m 1.00307,0.012 c -0.85897,-0.34911 -0.73379,-0.54434 0.1512,-0.23583 0.47365,0.16512 9.08061,0.23262 23.54797,0.18467 12.54081,-0.0415 22.80144,0.009 22.80141,0.11224 -9e-5,0.28275 -45.80264,0.22258 -46.50058,-0.0611 z m 46.99835,0.0717 c -0.0172,-0.10914 -0.0172,-0.28773 0,-0.39687 0.0172,-0.10914 -10.35687,-0.20554 -23.05356,-0.21421 -12.69669,-0.009 -23.64383,-0.10786 -24.32697,-0.22041 -0.84658,-0.13948 -1.50314,-0.0949 -2.06195,0.1401 l -0.81988,0.34473 0.0776,-1.91026 c 0.0681,-1.67761 0.14202,-1.91952 0.60674,-1.98627 0.47909,-0.0688 0.52049,0.0501 0.43748,1.25677 -0.0744,1.08239 -0.0123,1.33278 0.33073,1.33278 0.23233,0 0.42237,0.0893 0.42232,0.19843 -8e-5,0.17631 23.08072,0.1758 40.39081,-7.9e-4 3.51547,-0.0359 6.25736,0.0176 6.09308,0.11881 -0.62684,0.38627 0.0664,0.49144 0.91417,0.13869 0.87836,-0.36551 1.54995,-0.33973 1.54995,0.0595 0,0.11321 -0.32742,0.16028 -0.7276,0.10458 l -0.72761,-0.10125 0.66146,0.31157 c 0.3638,0.17136 0.74647,0.2944 0.85037,0.27341 0.10391,-0.021 0.12094,0.13901 0.0378,0.35555 -0.15706,0.4093 -0.6003,0.54144 -0.65496,0.19526 z m -48.98273,-1.30678 c -0.36194,-0.0946 -0.46302,-0.40556 -0.46302,-1.42452 0,-0.71693 -0.11906,-1.30351 -0.26458,-1.30351 -0.14552,0 -0.26459,0.65484 -0.26459,1.4552 0,1.41856 0.0183,1.45444 0.72761,1.42452 0.44765,-0.0189 0.54945,-0.0772 0.26458,-0.15169 z m -26.3615,-1.19071 c -0.0169,-0.68264 0.0635,-1.29937 0.1786,-1.37051 0.11511,-0.0711 0.16778,0.30879 0.11704,0.84429 -0.15502,1.63613 -0.26342,1.82907 -0.29564,0.52622 z m -4.13087,-1.5262 c -0.19888,-2.5128 0.0498,-5.86271 0.39385,-5.30598 0.15761,0.25503 0.23649,0.24775 0.35467,-0.0327 0.0836,-0.19836 0.10623,-0.0352 0.0503,0.36263 -0.0559,0.39782 0.009,0.7918 0.14463,0.87552 0.13546,0.0837 0.2322,0.4726 0.21498,0.8642 l -0.0313,0.71198 -0.16713,-0.77874 c -0.0919,-0.42832 -0.2862,-0.72597 -0.43172,-0.66146 -0.16129,0.0715 -0.23407,1.33097 -0.18643,3.22614 0.043,1.70987 0.0259,3.10886 -0.038,3.10886 -0.0639,0 -0.20065,-1.0667 -0.30383,-2.37045 z m 0.73266,1.31211 c 0,-0.65484 0.0516,-0.92273 0.11466,-0.59531 0.0631,0.32742 0.0631,0.8632 0,1.19063 -0.0631,0.32742 -0.11466,0.0595 -0.11466,-0.59532 z m 2.91042,0 c 0,-0.65484 0.0516,-0.92273 0.11466,-0.59531 0.0631,0.32742 0.0631,0.8632 0,1.19063 -0.0631,0.32742 -0.11466,0.0595 -0.11466,-0.59532 z m 76.2,0 c 0,-0.65484 0.0516,-0.92273 0.11466,-0.59531 0.0631,0.32742 0.0631,0.8632 0,1.19063 -0.0631,0.32742 -0.11466,0.0595 -0.11466,-0.59532 z m -48.02779,-1.25247 c 0.61846,-0.0557 1.63049,-0.0557 2.24896,0 0.61846,0.0557 0.11244,0.10128 -1.12448,0.10128 -1.23693,0 -1.74295,-0.0456 -1.12448,-0.10128 z m 27.64256,0.0458 c 0.0682,-0.0682 4.71476,-0.15207 10.32576,-0.18645 5.61099,-0.0344 10.06427,0.0264 9.89617,0.13512 -0.32535,0.21035 -20.43199,0.26139 -20.22193,0.0513 z m -18.36416,-0.31487 c 3.24773,-0.0421 8.48648,-0.0421 11.64167,1.1e-4 3.15518,0.0422 0.49795,0.0766 -5.90497,0.0766 -6.40291,-7e-5 -8.98443,-0.0346 -5.7367,-0.0767 z m -40.43309,-1.10906 c 0,-0.28246 0.10186,-0.57651 0.22636,-0.65346 0.1245,-0.0769 0.17015,0.15416 0.10145,0.51355 -0.14923,0.78065 -0.32781,0.85686 -0.32781,0.13991 z m 3.24706,-1.60305 c 0,-0.65484 0.0516,-0.92273 0.11466,-0.59531 0.0631,0.32742 0.0631,0.8632 0,1.19062 -0.0631,0.32742 -0.11466,0.0595 -0.11466,-0.59531 z m -0.23007,-3.02318 c -0.16174,-0.34274 -0.21141,-1.1059 -0.11498,-1.76667 l 0.16977,-1.16328 0.14693,1.7198 c 0.0808,0.94588 0.13255,1.74088 0.11498,1.76666 -0.0176,0.0258 -0.16008,-0.22465 -0.3167,-0.55651 z m -2.99062,-0.96762 c 0.0145,-0.64272 0.12229,-1.46623 0.23953,-1.83003 0.1279,-0.39691 0.15545,0.0264 0.0689,1.05833 -0.16859,2.00984 -0.34639,2.45473 -0.30841,0.7717 z m 2.92582,-2.62378 c 0,-0.36381 0.0601,-0.51263 0.13345,-0.33073 0.0734,0.1819 0.0734,0.47955 0,0.66146 -0.0734,0.1819 -0.13345,0.0331 -0.13345,-0.33073 z m -3.25563,-0.33073 c -0.0553,-0.32742 -0.0266,-1.07157 0.0639,-1.65365 0.14506,-0.93356 0.16888,-0.86338 0.20199,0.59531 0.038,1.67273 -0.0817,2.14901 -0.26589,1.05834 z m -0.68283,-0.72761 c 0,-0.65484 0.0516,-0.92273 0.11466,-0.59531 0.0631,0.32742 0.0631,0.8632 0,1.19063 -0.0631,0.32742 -0.11466,0.0595 -0.11466,-0.59532 z m 3.65299,-0.15434 c 0.0127,-0.30822 0.0754,-0.37092 0.15985,-0.15985 0.0764,0.191 0.067,0.4192 -0.0209,0.50712 -0.0879,0.0879 -0.15046,-0.0683 -0.13897,-0.34727 z m 0.55986,-1.03628 c 0.005,-0.43656 0.0647,-0.58313 0.13177,-0.3257 0.0671,0.25744 0.0627,0.61462 -0.01,0.79375 -0.0725,0.17914 -0.12736,-0.0315 -0.12197,-0.46805 z m -3.96674,-2.30932 c 0.30447,-2.61638 0.49263,-2.90787 0.30261,-0.46881 -0.085,1.09141 -0.23827,2.07628 -0.34055,2.1886 -0.10228,0.11232 -0.0852,-0.66159 0.0379,-1.71979 z m 3.45272,0.7218 c 0.003,-0.58209 0.0571,-0.78906 0.1204,-0.45994 0.0633,0.32912 0.0609,0.80537 -0.005,1.05834 -0.0662,0.25296 -0.11801,-0.0163 -0.11507,-0.5984 z m -2.91576,-0.13229 c 0,-0.50933 0.0545,-0.71769 0.121,-0.46302 0.0666,0.25466 0.0666,0.67138 0,0.92604 -0.0666,0.25466 -0.121,0.0463 -0.121,-0.46302 z m 0.56023,-3.17498 c 0,-1.23693 0.0456,-1.74295 0.10128,-1.12448 0.0557,0.61846 0.0557,1.63049 0,2.24896 -0.0557,0.61846 -0.10128,0.11244 -0.10128,-1.12448 z m 2.3479,-0.15137 c -0.0292,-0.35331 -0.009,-0.64238 0.0453,-0.64238 0.19668,0 0.37011,1.06088 0.19148,1.17128 -0.10099,0.0624 -0.20754,-0.17559 -0.23678,-0.5289 z m -3.6912,-0.90702 c 0,-0.65484 0.0516,-0.92273 0.11466,-0.59531 0.0631,0.32742 0.0631,0.8632 0,1.19063 -0.0631,0.32742 -0.11466,0.0595 -0.11466,-0.59532 z m 0.71516,-0.0538 c -0.0702,-0.68446 -0.0298,-1.14663 0.0898,-1.02706 0.11958,0.11958 0.17701,0.67959 0.12763,1.24447 l -0.0898,1.02706 z m 2.93783,-0.62965 c 0.0127,-0.30823 0.0754,-0.37092 0.15985,-0.15986 0.0764,0.191 0.067,0.4192 -0.0209,0.50712 -0.0879,0.0879 -0.15046,-0.0683 -0.13897,-0.34726 z m -1.07922,-0.90393 -1.45521,-0.17833 1.37345,-0.0431 c 0.75539,-0.0237 1.44703,0.0759 1.53697,0.22145 0.0899,0.14552 0.12673,0.24518 0.0818,0.22146 -0.045,-0.0237 -0.73661,-0.12338 -1.53697,-0.22146 z"
           style="fill:#6c99cd;stroke-width:0.26458335" />
        <path
           sodipodi:nodetypes="ccccsccccscccccscccsccsccccccscccscccccccsccccccccccccccsccccccccsscscccccccccccccccscsccsscsssccsccccccsccccccc"
           inkscape:connector-curvature="0"
           id="path967"
           d="m 228.45576,357.43772 c -0.22868,-0.22867 -0.42557,-0.49656 -0.43753,-0.59531 -0.0853,-0.70395 -0.27022,-1.91115 -0.41251,-2.69308 -0.0927,-0.50932 -0.19894,-1.16417 -0.23611,-1.45521 -0.0738,-0.57815 -0.32919,-1.81269 -0.54723,-2.64583 -0.11875,-0.45375 -0.0582,-0.4349 0.42503,0.13229 0.62258,0.73081 0.33315,0.081 -0.46639,-1.04705 -0.35359,-0.49888 -0.36847,-0.59481 -0.064,-0.41224 0.32964,0.19764 0.34123,0.16919 0.0684,-0.16791 -0.18064,-0.22322 -0.25801,-0.47629 -0.17195,-0.56235 0.0861,-0.0861 0.0586,-0.31324 -0.061,-0.50483 -0.26762,-0.42861 -0.38053,-0.94064 -0.3977,-1.80354 -0.007,-0.3638 -0.1653,-1.13771 -0.35126,-1.71979 -0.62557,-1.95814 -0.72348,-2.57532 -0.37432,-2.35953 0.17651,0.10909 0.12175,-0.086 -0.12169,-0.43358 -0.24344,-0.34756 -0.44262,-1.01512 -0.44262,-1.48348 0,-0.46835 -0.121,-0.92634 -0.2689,-1.01774 -0.14789,-0.0914 -0.19919,-0.27897 -0.114,-0.41681 0.0852,-0.13784 0.24588,-0.19438 0.35709,-0.12565 0.11121,0.0687 0.2022,-0.0465 0.2022,-0.25606 0,-0.26925 -0.0944,-0.30266 -0.32188,-0.1139 -0.35485,0.2945 -0.77057,-0.39274 -0.50121,-0.82858 0.0818,-0.13239 0.0156,-0.24071 -0.14705,-0.24071 -0.16269,0 -0.22544,-0.11386 -0.13943,-0.25303 0.086,-0.13916 0.36093,-0.18746 0.61093,-0.10733 0.34973,0.1121 0.37153,0.0864 0.0945,-0.11142 -0.19801,-0.14141 -0.60358,-0.19342 -0.90127,-0.11557 -0.29769,0.0779 -0.47458,0.0335 -0.39309,-0.0986 0.17263,-0.27977 -0.0408,-0.28612 -11.76571,-0.35 -9.46028,-0.0516 -9.21926,-0.0171 -9.41679,-1.34532 -0.17463,-1.17423 -0.16898,-5.12464 0.009,-6.35 0.0952,-0.65484 0.18042,-1.34351 0.18947,-1.53036 0.0131,-0.26974 1.33844,-0.31878 6.4326,-0.23804 6.18499,0.098 8.13593,0.26957 8.13593,0.71533 0,0.11538 0.23127,0.1493 0.51392,0.0754 0.28266,-0.0739 1.50305,7e-5 2.71198,0.16442 3.18526,0.43303 3.26427,0.45361 3.17532,0.82705 -0.0559,0.23455 0.0264,0.26296 0.26459,0.0914 0.53926,-0.38843 3.97072,-0.0185 4.13856,0.44618 0.0488,0.13513 0.19855,0.17782 0.33276,0.0949 0.13421,-0.0829 0.4302,0.0354 0.65776,0.26293 0.22756,0.22756 0.63963,0.41375 0.91571,0.41375 0.36063,0 0.45412,0.12467 0.33204,0.44281 -0.12402,0.32318 -0.0608,0.40093 0.23398,0.28781 0.4967,-0.1906 1.1112,0.49816 1.23659,1.38604 0.0514,0.36381 0.1885,0.72099 0.30471,0.79375 0.11622,0.0728 0.29416,0.78714 0.39543,1.5875 0.10127,0.80037 0.23398,1.53628 0.29491,1.63537 0.0609,0.0991 -0.0102,0.25494 -0.15811,0.34634 -0.14789,0.0914 -0.26707,0.30799 -0.26485,0.4813 0.003,0.21086 0.0793,0.19635 0.23151,-0.0439 0.32607,-0.51459 0.63935,0.0833 0.41463,0.79136 -0.10027,0.31592 -0.0723,0.4948 0.0641,0.41048 0.133,-0.0822 0.3903,0.70656 0.57178,1.7528 0.41552,2.39557 2.56163,15.76291 2.801,17.44653 l 0.17869,1.25677 h -3.70148 c -3.0122,0 -3.7789,-0.0774 -4.11725,-0.41578 z m 0.76052,-0.30376 c 0.096,-0.25023 0.0887,-0.36903 -0.0164,-0.26401 -0.10502,0.10502 -0.43056,-0.0177 -0.72342,-0.27265 -0.53179,-0.463 -0.53181,-0.46267 -0.0215,0.2557 0.61248,0.86213 0.54745,0.83813 0.76126,0.28096 z m 6.40727,-1.19869 c -0.0734,-0.1819 -0.13346,-0.0331 -0.13346,0.33073 0,0.3638 0.0601,0.51263 0.13346,0.33073 0.0734,-0.18191 0.0734,-0.47956 0,-0.66146 z m -1.05283,-6.86263 c -0.0845,-0.21107 -0.14715,-0.14838 -0.15985,0.15985 -0.0115,0.27891 0.0511,0.43518 0.13897,0.34727 0.0879,-0.0879 0.0973,-0.31613 0.0209,-0.50712 z m -7.37559,-2.73552 c -0.0815,-0.0815 -0.2294,0.0654 -0.32876,0.32632 -0.14359,0.37708 -0.1132,0.40747 0.14811,0.14811 0.18082,-0.17947 0.26212,-0.39297 0.18065,-0.47443 z m 3.48264,-14.34664 c -0.007,-0.62415 -0.0466,-0.66147 -0.2789,-0.26249 -0.14897,0.25581 -0.19786,0.58323 -0.10863,0.7276 0.27356,0.44264 0.39594,0.29576 0.38753,-0.46511 z m -0.2237,-1.45962 c -0.26131,-0.25936 -0.2917,-0.22897 -0.14812,0.14811 0.0994,0.26094 0.24731,0.40778 0.32877,0.32632 0.0815,-0.0815 1.7e-4,-0.29496 -0.18065,-0.47443 z m -7.17659,-1.61838 c 0,-0.0558 -0.23829,-0.16375 -0.52953,-0.23991 -0.29124,-0.0762 -0.46281,-0.0305 -0.38126,0.10144 0.14241,0.23042 0.91079,0.34724 0.91079,0.13847 z m 2.29306,-0.2838 c 0,-0.21188 -0.0992,-0.32392 -0.22049,-0.24897 -0.12126,0.075 -0.22048,0.2483 -0.22048,0.38524 0,0.13693 0.0992,0.24896 0.22048,0.24896 0.12127,0 0.22049,-0.17335 0.22049,-0.38523 z m -2.55764,-0.37849 c 0,-0.129 -0.35719,-0.28697 -0.79375,-0.35105 -0.43656,-0.0641 -0.79375,-0.026 -0.79375,0.0847 0,0.11065 0.32742,0.25078 0.7276,0.31141 0.40019,0.0606 0.75737,0.12806 0.79375,0.14986 0.0364,0.0218 0.0662,-0.0659 0.0662,-0.19491 z m -7.14375,-1.24913 c 0,-0.21898 -0.51375,-0.34281 -0.63154,-0.15223 -0.0764,0.12365 0.0344,0.22481 0.2463,0.22481 0.21188,0 0.38524,-0.0327 0.38524,-0.0726 z m -19.263,-11.08402 c 0.005,-0.43656 0.0647,-0.58313 0.13177,-0.3257 0.0671,0.25744 0.0627,0.61462 -0.01,0.79375 -0.0725,0.17914 -0.12736,-0.0315 -0.12197,-0.46805 z"
           style="fill:#466f81;stroke-width:0.26458335" />
        <path
           sodipodi:nodetypes="cssccscccssssssccccccccccsccccccsccccccsscssccc"
           inkscape:connector-curvature="0"
           id="path965"
           d="m 196.27828,362.46961 c -0.53982,-0.65044 -0.40735,-1.90404 0.27831,-2.63389 1.62236,-1.72692 4.29731,0.41486 3.16367,2.53309 -0.35701,0.66708 -2.90996,0.74184 -3.44198,0.1008 z m 13.25699,-0.0881 c -0.68304,-1.27627 0.24789,-3.20512 1.5469,-3.20512 1.64599,0 2.82538,1.60758 2.11334,2.88058 -0.33532,0.59948 -0.58543,0.70177 -1.88311,0.77017 -1.26823,0.0668 -1.53924,-10e-4 -1.77713,-0.44563 z m 13.53055,0.18155 c -0.17463,-0.17463 -0.3175,-0.7613 -0.3175,-1.30371 0,-1.10687 0.92989,-2.08296 1.98437,-2.08296 0.95393,0 1.98438,0.98076 1.98438,1.88868 0,1.44881 -0.39199,1.81549 -1.94077,1.81549 -0.76614,0 -1.53586,-0.14288 -1.71048,-0.3175 z M 210.3129,347.93162 v -7.27604 h 1.05833 1.05834 v 7.27604 7.27604 h -1.05834 -1.05833 z m -12.96458,-9.19366 c -1.62111,-0.82239 -1.96901,-3.66327 -2.16286,-17.66159 l -0.0861,-6.21771 0.68911,-0.08 c 0.64842,-0.0753 0.69905,0.003 0.85759,1.32292 0.0927,0.7716 0.17394,3.18886 0.18061,5.37167 0.0179,5.86241 0.44893,13.89872 0.79832,14.88441 0.29134,0.82189 0.52808,0.96382 1.97228,1.18235 0.36581,0.0554 0.52917,0.28315 0.52917,0.7379 0,0.57961 -0.12586,0.66603 -1.05833,0.72673 -0.58209,0.0379 -1.35599,-0.0821 -1.71979,-0.26668 z m 35.71875,-19.24609 v -0.79084 l 11.03717,-0.0691 11.03716,-0.0691 1.80643,-4.63021 c 6.65342,-17.05391 6.22622,-16.03635 6.58283,-15.67974 0.20889,0.20889 -0.85591,3.21723 -3.84253,10.85619 -2.27231,5.81197 -4.13148,10.70365 -4.13148,10.87038 0,0.22307 -2.97073,0.30316 -11.24479,0.30316 h -11.24479 v -0.79084 z"
           style="fill:#646667;stroke-width:0.26458335" />
        <path
           sodipodi:nodetypes="cccscccsccsccccccccccscssccccccsccsccsscssscccccsccscccsccccccccccccccccscssssscscscccscscssscscsccccccccscssssscss"
           inkscape:connector-curvature="0"
           id="path963"
           d="m 228.31947,356.71438 -0.64656,-0.84526 0.66619,0.59774 c 0.3664,0.32875 0.75294,0.51097 0.85898,0.40493 0.10603,-0.10603 0.11423,0.0119 0.0182,0.26217 -0.212,0.55245 -0.12057,0.59522 -0.89682,-0.41958 z m 7.17062,-0.44838 c 0,-0.36381 0.0601,-0.51263 0.13346,-0.33073 0.0734,0.1819 0.0734,0.47955 0,0.66146 -0.0734,0.1819 -0.13346,0.0331 -0.13346,-0.33073 z m -7.95838,-1.74184 c 0.0127,-0.30823 0.0754,-0.37092 0.15985,-0.15986 0.0764,0.191 0.067,0.4192 -0.0209,0.50712 -0.0879,0.0879 -0.15045,-0.0683 -0.13896,-0.34726 z m -0.26459,-1.85209 c 0.0127,-0.30822 0.0754,-0.37092 0.15985,-0.15985 0.0764,0.191 0.067,0.4192 -0.0209,0.50712 -0.0879,0.0879 -0.15046,-0.0683 -0.13897,-0.34727 z m -0.15019,-2.65636 c -0.25011,-0.38172 -0.32398,-0.61321 -0.16415,-0.51443 0.30544,0.18877 0.92146,1.20847 0.73007,1.20847 -0.0611,0 -0.31581,-0.31232 -0.56592,-0.69404 z m 7.29394,-0.78322 c 0.0127,-0.30823 0.0754,-0.37092 0.15985,-0.15985 0.0764,0.19099 0.067,0.4192 -0.0209,0.50712 -0.0879,0.0879 -0.15045,-0.0684 -0.13897,-0.34727 z m -7.5445,-2.56901 c 0.0994,-0.26094 0.2473,-0.40778 0.32876,-0.32632 0.0815,0.0815 1.7e-4,0.29495 -0.18065,0.47443 -0.26131,0.25936 -0.2917,0.22897 -0.14811,-0.14811 z m -0.90128,-1.50995 c 0,-0.36381 0.0601,-0.51263 0.13346,-0.33073 0.0734,0.1819 0.0734,0.47955 0,0.66146 -0.0734,0.1819 -0.13346,0.0331 -0.13346,-0.33073 z m -1.62927,-7.02314 c 0,-0.0307 0.15875,-0.18755 0.35277,-0.34858 0.26363,-0.21879 0.35278,-0.20468 0.35278,0.0558 0,0.19172 -0.15875,0.34858 -0.35278,0.34858 -0.19402,0 -0.35277,-0.0251 -0.35277,-0.0558 z m -0.37008,-2.01607 c 0.0673,-0.10896 0.29722,-0.13104 0.51084,-0.0491 0.53866,0.2067 0.4852,0.33142 -0.12243,0.28565 -0.28096,-0.0212 -0.45574,-0.12763 -0.38841,-0.23658 z m 8.04299,0.059 c 0,-0.13693 0.1177,-0.32171 0.26156,-0.41062 0.14998,-0.0927 0.19433,0.0135 0.10398,0.24897 -0.17589,0.45837 -0.36554,0.54223 -0.36554,0.16165 z m -29.52618,-1.14014 -0.50403,-0.59531 0.59532,0.50403 c 0.55944,0.47366 0.71576,0.6866 0.50403,0.6866 -0.0502,0 -0.3181,-0.26789 -0.59532,-0.59532 z m -0.5149,-1.0098 c -0.0959,-0.1552 -0.11766,-0.33893 -0.0483,-0.40828 0.0694,-0.0694 0.1966,0.0576 0.28277,0.28218 0.17891,0.46623 0.0264,0.54824 -0.23447,0.1261 z m 28.32259,-1.5678 c -0.0892,-0.14437 -0.0403,-0.47179 0.10863,-0.7276 0.23234,-0.39898 0.272,-0.36166 0.2789,0.26249 0.008,0.76087 -0.11397,0.90775 -0.38753,0.46511 z m 1.21022,-0.6856 c 0.0127,-0.30823 0.0754,-0.37092 0.15985,-0.15985 0.0764,0.19099 0.067,0.4192 -0.0209,0.50712 -0.0879,0.0879 -0.15045,-0.0684 -0.13896,-0.34727 z m -1.19451,-1.09101 c -0.14358,-0.37708 -0.11319,-0.40747 0.14812,-0.14811 0.18082,0.17947 0.26211,0.39297 0.18065,0.47443 -0.0815,0.0815 -0.22941,-0.0654 -0.32877,-0.32632 z m -0.41388,-0.87131 c 0,-0.14552 0.11906,-0.26458 0.26458,-0.26458 0.14552,0 0.26458,0.11906 0.26458,0.26458 0,0.14552 -0.11906,0.26459 -0.26458,0.26459 -0.14552,0 -0.26458,-0.11907 -0.26458,-0.26459 z m -1.05834,-0.79375 c -0.21828,-0.14106 -0.27781,-0.25648 -0.13229,-0.25648 0.14552,0 0.44318,0.11542 0.66146,0.25648 0.21828,0.14107 0.27781,0.25648 0.13229,0.25648 -0.14552,0 -0.44317,-0.11541 -0.66146,-0.25648 z m -6.46704,-0.23994 c -0.0816,-0.13196 0.09,-0.1776 0.38126,-0.10144 0.6178,0.16156 0.6959,0.34134 0.14827,0.34134 -0.20969,0 -0.44798,-0.10795 -0.52953,-0.2399 z m 2.76288,-0.009 c 0,-0.13694 0.0992,-0.31029 0.22048,-0.38524 0.12127,-0.075 0.22049,0.0371 0.22049,0.24897 0,0.21188 -0.0992,0.38523 -0.22049,0.38523 -0.12126,0 -0.22048,-0.11203 -0.22048,-0.24896 z m -2.97657,-0.46951 c -0.40018,-0.0606 -0.7276,-0.20076 -0.7276,-0.31141 0,-0.11065 0.35719,-0.14876 0.79375,-0.0847 0.43656,0.0641 0.79375,0.22205 0.79375,0.35105 0,0.12901 -0.0298,0.21672 -0.0662,0.19491 -0.0364,-0.0218 -0.39356,-0.0892 -0.79375,-0.14986 z m 2.31511,-0.33966 c -0.43138,-0.18537 -0.44649,-0.23083 -0.0818,-0.24599 0.24607,-0.0102 0.52099,0.10047 0.61093,0.24599 0.18802,0.30424 0.17883,0.30424 -0.52917,0 z m -9.39271,-0.93796 c 0,-0.0307 0.15875,-0.18755 0.35278,-0.34858 0.26362,-0.21879 0.35278,-0.20468 0.35278,0.0558 0,0.19172 -0.15875,0.34858 -0.35278,0.34858 -0.19403,0 -0.35278,-0.0251 -0.35278,-0.0558 z m 1.85208,-0.12059 c 0,-0.14552 0.12609,-0.26459 0.2802,-0.26459 0.15411,0 0.20662,0.11907 0.11668,0.26459 -0.0899,0.14552 -0.21603,0.26458 -0.2802,0.26458 -0.0642,0 -0.11668,-0.11906 -0.11668,-0.26458 z"
           style="fill:#466d7c;stroke-width:0.26458335" />
        <path
           sodipodi:nodetypes="csccccc"
           inkscape:connector-curvature="0"
           id="path1038"
           d="m 196.77182,359.14015 c 0,0 0.13363,-1.53678 0.46772,-1.80406 0.33409,-0.26728 13.07336,-2.12844 13.07336,-2.12844 h 2.11667 l 12.40555,2.32889 c 0.88042,0.0682 1.21564,1.21141 1.1968,1.60361 z"
           style="fill:#69766c;fill-opacity:1;fill-rule:evenodd;stroke:none;stroke-width:0.26458332px;stroke-linecap:butt;stroke-linejoin:miter;stroke-opacity:1" />
      </g>
    </g>
  </g>
</svg>
